*%FSLAX23Y23*%
*%MOIN*%
G01*
%ADD11C,0.100*%
%ADD12C,0.120*%
%ADD13C,0.010*%
%ADD14C,0.008*%
%ADD15C,0.012*%
%ADD16C,0.062*%
%ADD17C,0.082*%
%ADD18C,0.150*%
%ADD19C,0.170*%
%ADD20C,0.050*%
%ADD21C,0.070*%
%ADD22R,0.062X0.062*%
%ADD23R,0.082X0.082*%
D11*
X10521Y3025D03*
X10521Y3225D03*
D13*
X10176Y3180D02*
X10176Y3180D01*
X10176Y1450D01*
X9916Y1360D02*
X9916Y1360D01*
X9616Y1360D01*
X9616Y1360D02*
X9616Y1360D01*
X9616Y1510D01*
X9516Y1510D02*
X9516Y1510D01*
X9516Y1760D01*
X9516Y1760D02*
X9516Y1760D01*
X9916Y1760D01*
X10076Y1887D02*
X10076Y1887D01*
X10076Y2871D01*
X10076Y2871D02*
X10076Y2871D01*
X9986Y2961D01*
X9986Y2961D02*
X9986Y2961D01*
X9986Y3948D01*
X10126Y3990D02*
X10126Y3990D01*
X9335Y3990D01*
X9335Y3990D02*
X9335Y3990D01*
X9335Y3786D01*
X9226Y3786D02*
X9226Y3786D01*
X9226Y3940D01*
X9008Y3786D02*
X9008Y3786D01*
X9008Y3650D01*
X9008Y3650D02*
X9008Y3650D01*
X9006Y3650D01*
X9006Y3650D02*
X9006Y3650D01*
X8991Y3640D01*
X8991Y3640D02*
X8991Y3640D01*
X8991Y3145D01*
X8924Y2961D02*
X8924Y2961D01*
X8687Y2961D01*
X8687Y2961D02*
X8687Y2961D01*
X8630Y2904D01*
X8630Y2904D02*
X8630Y2904D01*
X8630Y2766D01*
X8630Y2766D02*
X8630Y2766D01*
X8651Y2745D01*
X8651Y2745D02*
X8651Y2745D01*
X8651Y2589D01*
X8651Y2598D02*
X8651Y2598D01*
X8651Y2241D01*
X8651Y2241D02*
X8651Y2241D01*
X8696Y2196D01*
X8696Y2196D02*
X8696Y2196D01*
X8696Y2103D01*
X8700Y2113D02*
X8700Y2113D01*
X8700Y1855D01*
X8700Y1855D02*
X8700Y1855D01*
X8591Y1855D01*
X8616Y1660D02*
X8616Y1660D01*
X8666Y1660D01*
X8666Y1660D02*
X8666Y1660D01*
X8666Y1510D01*
X8666Y1506D02*
X8666Y1506D01*
X8666Y1437D01*
X8666Y1437D02*
X8666Y1437D01*
X8792Y1311D01*
X8792Y1311D02*
X8792Y1311D01*
X8864Y1311D01*
X8864Y1311D02*
X8864Y1311D01*
X8963Y1212D01*
X8966Y1210D02*
X8966Y1210D01*
X8966Y1240D01*
X8966Y1209D02*
X8966Y1209D01*
X9020Y1209D01*
X9020Y1209D02*
X9020Y1209D01*
X9092Y1137D01*
X9092Y1137D02*
X9092Y1137D01*
X9263Y1137D01*
X9263Y1137D02*
X9263Y1137D01*
X9323Y1197D01*
X9323Y1197D02*
X9323Y1197D01*
X9323Y1389D01*
X9323Y1389D02*
X9323Y1389D01*
X9323Y1458D01*
X9323Y1458D02*
X9323Y1458D01*
X9371Y1506D01*
X9371Y1506D02*
X9371Y1506D01*
X9419Y1506D01*
X9242Y1473D02*
X9242Y1473D01*
X9242Y1287D01*
X9242Y1287D02*
X9242Y1287D01*
X9164Y1209D01*
X9167Y1308D02*
X9167Y1308D01*
X8966Y1509D01*
X8866Y1510D02*
X8866Y1510D01*
X8866Y1660D01*
X8866Y1660D02*
X8866Y1660D01*
X9016Y1660D01*
X9063Y1690D02*
X9063Y1690D01*
X9076Y1680D01*
X9076Y1680D02*
X9076Y1680D01*
X9076Y1600D01*
X9063Y1690D02*
X9063Y1690D01*
X9063Y3676D01*
X9281Y3676D02*
X9281Y3676D01*
X9281Y3295D01*
X9281Y3295D02*
X9281Y3295D01*
X9389Y3295D01*
X9389Y3295D02*
X9389Y3295D01*
X9549Y3295D01*
X9549Y3295D02*
X9549Y3295D01*
X9549Y3151D01*
X9449Y3151D02*
X9449Y3151D01*
X9245Y3151D01*
X9245Y3151D02*
X9245Y3151D01*
X9245Y3035D01*
X9245Y3035D02*
X9245Y3035D01*
X9170Y3035D01*
X9170Y3035D02*
X9170Y3035D01*
X9170Y2609D01*
X9170Y2509D02*
X9170Y2509D01*
X9170Y2345D01*
X9170Y2345D02*
X9170Y2345D01*
X9171Y2345D01*
X9173Y2346D02*
X9173Y2346D01*
X9188Y2346D01*
X9188Y2346D02*
X9188Y2346D01*
X9242Y2292D01*
X9242Y2292D02*
X9242Y2292D01*
X9242Y1950D01*
X9245Y1953D02*
X9245Y1953D01*
X9206Y1914D01*
X9203Y1914D02*
X9203Y1914D01*
X9248Y1869D01*
X9248Y1866D02*
X9248Y1866D01*
X9248Y1638D01*
X9248Y1638D02*
X9248Y1638D01*
X9176Y1566D01*
X9164Y1551D02*
X9164Y1551D01*
X9245Y1632D01*
X9164Y1551D02*
X9164Y1551D01*
X9242Y1473D01*
X9416Y1210D02*
X9416Y1210D01*
X9416Y1000D01*
X9716Y950D02*
X9716Y950D01*
X8766Y950D01*
X8766Y950D02*
X8766Y950D01*
X8766Y1210D01*
X8766Y1060D02*
X8766Y1060D01*
X8616Y1060D01*
X8616Y1060D02*
X8616Y1060D01*
X8626Y1070D01*
X8626Y1070D02*
X8626Y1070D01*
X8626Y1140D01*
X8626Y1140D02*
X8626Y1140D01*
X8606Y1160D01*
X8606Y1160D02*
X8606Y1160D01*
X8606Y1280D01*
X8556Y1120D02*
X8556Y1120D01*
X8556Y1570D01*
X8446Y1560D02*
X8446Y1560D01*
X8446Y1060D01*
X8446Y1060D02*
X8446Y1060D01*
X8366Y1060D01*
X8366Y1160D02*
X8366Y1160D01*
X8366Y1460D01*
X8363Y1557D02*
X8363Y1557D01*
X8261Y1557D01*
X8261Y1557D02*
X8261Y1557D01*
X8210Y1506D01*
X8210Y1506D02*
X8210Y1506D01*
X8150Y1506D01*
X7947Y1507D02*
X7947Y1507D01*
X7947Y1780D01*
X7947Y1780D02*
X7947Y1780D01*
X7936Y1790D01*
X7936Y1790D02*
X7936Y1790D01*
X7936Y2750D01*
X7776Y2845D02*
X7776Y2845D01*
X7776Y2050D01*
X7706Y2155D02*
X7706Y2155D01*
X7706Y1940D01*
X7706Y1940D02*
X7706Y1940D01*
X7661Y1895D01*
X7661Y1895D02*
X7661Y1895D01*
X7706Y1850D01*
X7706Y1850D02*
X7706Y1850D01*
X7706Y1440D01*
X7706Y1440D02*
X7706Y1440D01*
X7631Y1365D01*
X7622Y1365D02*
X7622Y1365D01*
X7658Y1365D01*
X7622Y1365D02*
X7622Y1365D01*
X7622Y1218D01*
X7622Y1218D02*
X7622Y1218D01*
X7670Y1170D01*
X7670Y1170D02*
X7670Y1170D01*
X7670Y1071D01*
X7565Y1071D02*
X7565Y1071D01*
X7565Y1107D01*
X7565Y1107D02*
X7565Y1107D01*
X7520Y1152D01*
X7520Y1152D02*
X7520Y1152D01*
X7397Y1152D01*
X7397Y1152D02*
X7397Y1152D01*
X7367Y1182D01*
X7367Y1182D02*
X7367Y1182D01*
X7367Y1455D01*
X7367Y1461D02*
X7367Y1461D01*
X7418Y1512D01*
X7496Y1398D02*
X7496Y1398D01*
X7496Y1212D01*
X7496Y1213D02*
X7496Y1213D01*
X7421Y1213D01*
X7391Y1122D02*
X7391Y1122D01*
X7355Y1122D01*
X7355Y1122D02*
X7355Y1122D01*
X7319Y1158D01*
X7319Y1158D02*
X7319Y1158D01*
X7319Y1215D01*
X7271Y1290D02*
X7271Y1290D01*
X7271Y1820D01*
X7271Y1820D02*
X7271Y1820D01*
X7248Y1843D01*
X7248Y1842D02*
X7248Y1842D01*
X7248Y2197D01*
X7248Y2197D02*
X7248Y2197D01*
X7148Y2297D01*
X7148Y2297D02*
X7148Y2297D01*
X7148Y2672D01*
X7148Y2672D02*
X7148Y2672D01*
X7128Y2692D01*
X7128Y2692D02*
X7128Y2692D01*
X7128Y3092D01*
X7128Y3092D02*
X7128Y3092D01*
X7103Y3117D01*
X7103Y3117D02*
X7103Y3117D01*
X7103Y3137D01*
X7103Y3137D02*
X7103Y3137D01*
X7101Y3520D01*
X7286Y3370D02*
X7286Y3370D01*
X7286Y3145D01*
X7286Y3145D02*
X7286Y3145D01*
X7286Y2920D01*
X7286Y2920D02*
X7286Y2920D01*
X7306Y2900D01*
X7306Y2900D02*
X7306Y2900D01*
X7326Y2880D01*
X7326Y2880D02*
X7326Y2880D01*
X7336Y2870D01*
X7336Y2870D02*
X7336Y2870D01*
X7336Y2750D01*
X7326Y2710D02*
X7326Y2710D01*
X7286Y2710D01*
X7286Y2710D02*
X7286Y2710D01*
X7286Y2845D01*
X7186Y2845D02*
X7186Y2845D01*
X7186Y2960D01*
X7186Y2960D02*
X7186Y2960D01*
X7206Y2980D01*
X7206Y2980D02*
X7206Y2980D01*
X7226Y3000D01*
X7226Y3000D02*
X7226Y3000D01*
X7236Y3010D01*
X7236Y3010D02*
X7236Y3010D01*
X7236Y3080D01*
X7076Y3035D02*
X7076Y3035D01*
X6961Y3035D01*
X6961Y2935D02*
X6961Y2935D01*
X6961Y2710D01*
X6961Y2710D02*
X6961Y2710D01*
X6976Y2700D01*
X6976Y2700D02*
X6976Y2700D01*
X6986Y2690D01*
X6986Y2690D02*
X6986Y2690D01*
X6986Y2565D01*
X6986Y2565D02*
X6986Y2565D01*
X6931Y2565D01*
X6931Y2565D02*
X6931Y2565D01*
X6931Y2430D01*
X6931Y2430D02*
X6931Y2430D01*
X6946Y2420D01*
X6946Y2420D02*
X6946Y2420D01*
X6966Y2400D01*
X6966Y2400D02*
X6966Y2400D01*
X6976Y2390D01*
X6976Y2390D02*
X6976Y2390D01*
X6976Y2265D01*
X6976Y2265D02*
X6976Y2265D01*
X6921Y2265D01*
X6921Y2265D02*
X6921Y2265D01*
X6921Y2005D01*
X6921Y2005D02*
X6921Y2005D01*
X6911Y2005D01*
X6911Y2005D02*
X6911Y2005D01*
X6911Y2110D01*
X6911Y2110D02*
X6911Y2110D01*
X7100Y2110D01*
X7100Y2110D02*
X7100Y2110D01*
X7100Y1960D01*
X7100Y1960D02*
X7100Y1960D01*
X7127Y1938D01*
X7127Y1938D02*
X7127Y1938D01*
X7127Y1904D01*
X7127Y1904D02*
X7127Y1904D01*
X7116Y1890D01*
X7116Y1890D02*
X7116Y1890D01*
X7116Y1710D01*
X7118Y1716D02*
X7118Y1716D01*
X7028Y1716D01*
X7028Y1716D02*
X7028Y1716D01*
X6968Y1776D01*
X6968Y1776D02*
X6968Y1776D01*
X6848Y1776D01*
X6848Y1776D02*
X6848Y1776D01*
X6809Y1737D01*
X6809Y1737D02*
X6809Y1737D01*
X6809Y1395D01*
X6809Y1395D02*
X6809Y1395D01*
X6872Y1332D01*
X6946Y1450D02*
X6946Y1450D01*
X6946Y1110D01*
X6946Y1110D02*
X6946Y1110D01*
X6926Y1090D01*
X6926Y1090D02*
X6926Y1090D01*
X6916Y1080D01*
X6916Y1080D02*
X6916Y1080D01*
X6916Y950D01*
X6916Y950D02*
X6916Y950D01*
X7366Y950D01*
X7366Y950D02*
X7366Y950D01*
X7366Y1060D01*
X7391Y1122D02*
X7391Y1122D01*
X7511Y1002D01*
X7511Y1002D02*
X7511Y1002D01*
X7817Y1002D01*
X7817Y1002D02*
X7817Y1002D01*
X7946Y1131D01*
X7946Y1131D02*
X7946Y1131D01*
X7946Y1209D01*
X7964Y1314D02*
X7964Y1314D01*
X8366Y1314D01*
X8366Y1560D02*
X8366Y1560D01*
X8446Y1560D01*
X8366Y1560D02*
X8366Y1560D01*
X8366Y1820D01*
X8366Y1820D02*
X8366Y1820D01*
X8346Y1840D01*
X8346Y1840D02*
X8346Y1840D01*
X8346Y1965D01*
X8346Y1965D02*
X8346Y1965D01*
X8401Y1965D01*
X8401Y1965D02*
X8401Y1965D01*
X8401Y2195D01*
X8401Y2113D02*
X8401Y2113D01*
X8600Y2113D01*
X8496Y2110D02*
X8496Y2110D01*
X8496Y2590D01*
X8496Y2590D02*
X8496Y2590D01*
X8496Y2785D01*
X8496Y2785D02*
X8496Y2785D01*
X8466Y2815D01*
X8466Y2815D02*
X8466Y2815D01*
X8466Y2915D01*
X8461Y2915D02*
X8461Y2915D01*
X8296Y2915D01*
X8296Y2915D02*
X8296Y2915D01*
X8296Y3150D01*
X8296Y3150D02*
X8296Y3150D01*
X8216Y3150D01*
X8116Y3150D02*
X8116Y3150D01*
X8116Y3310D01*
X8086Y3310D02*
X8086Y3310D01*
X8086Y3686D01*
X8086Y3686D02*
X8086Y3686D01*
X8000Y3686D01*
X7891Y3686D02*
X7891Y3686D01*
X7891Y3680D01*
X7891Y3680D02*
X7891Y3680D01*
X7871Y3680D01*
X7871Y3680D02*
X7871Y3680D01*
X7871Y3310D01*
X7871Y3310D02*
X7871Y3310D01*
X8016Y3310D01*
X8016Y3310D02*
X8016Y3310D01*
X8016Y3150D01*
X7916Y3150D02*
X7916Y3150D01*
X7681Y3150D01*
X7681Y3150D02*
X7681Y3150D01*
X7681Y3025D01*
X7681Y3025D02*
X7681Y3025D01*
X7611Y2955D01*
X7611Y2955D02*
X7611Y2955D01*
X7611Y2750D01*
X7611Y2750D02*
X7611Y2750D01*
X7661Y2700D01*
X7661Y2695D02*
X7661Y2695D01*
X7661Y2710D01*
X7661Y2710D02*
X7661Y2710D01*
X7646Y2720D01*
X7726Y2760D02*
X7726Y2760D01*
X7681Y2805D01*
X7681Y2805D02*
X7681Y2805D01*
X7681Y2930D01*
X7726Y2760D02*
X7726Y2760D01*
X7726Y2630D01*
X7726Y2630D02*
X7726Y2630D01*
X7686Y2590D01*
X7686Y2590D02*
X7686Y2590D01*
X7666Y2590D01*
X7661Y2590D02*
X7661Y2590D01*
X7721Y2530D01*
X7721Y2530D02*
X7721Y2530D01*
X7721Y2280D01*
X7721Y2280D02*
X7721Y2280D01*
X7651Y2210D01*
X7651Y2210D02*
X7651Y2210D01*
X7706Y2155D01*
X7516Y1997D02*
X7516Y1997D01*
X7516Y2410D01*
X7516Y2410D02*
X7516Y2410D01*
X7400Y2410D01*
X7466Y2318D02*
X7466Y2318D01*
X7466Y1918D01*
X7300Y2110D02*
X7300Y2110D01*
X7300Y2260D01*
X7300Y2260D02*
X7300Y2260D01*
X7316Y2270D01*
X7316Y2270D02*
X7316Y2270D01*
X7336Y2290D01*
X7336Y2290D02*
X7336Y2290D01*
X7346Y2300D01*
X7346Y2300D02*
X7346Y2300D01*
X7346Y2690D01*
X7346Y2690D02*
X7346Y2690D01*
X7326Y2710D01*
X7100Y2610D02*
X7100Y2610D01*
X7100Y2410D01*
X7100Y2610D02*
X7100Y2610D01*
X7076Y2610D01*
X7076Y2610D02*
X7076Y2610D01*
X7076Y2615D01*
X7076Y2615D02*
X7076Y2615D01*
X7076Y3035D01*
X7016Y2780D02*
X7016Y2780D01*
X7016Y2210D01*
X6836Y2160D02*
X6836Y2160D01*
X6836Y2600D01*
X6836Y2600D02*
X6836Y2600D01*
X6856Y2620D01*
X6856Y2620D02*
X6856Y2620D01*
X6876Y2640D01*
X6876Y2640D02*
X6876Y2640D01*
X6876Y2840D01*
X6736Y2840D02*
X6736Y2840D01*
X6736Y2730D01*
X6776Y2615D02*
X6776Y2615D01*
X6607Y2615D01*
X6607Y2615D02*
X6607Y2615D01*
X6607Y2407D01*
X6607Y2407D02*
X6607Y2407D01*
X6607Y2180D01*
X6607Y2180D02*
X6607Y2180D01*
X6626Y2170D01*
X6626Y2170D02*
X6626Y2170D01*
X6626Y2160D01*
X6626Y2160D02*
X6626Y2160D01*
X6646Y2140D01*
X6646Y2140D02*
X6646Y2140D01*
X6656Y2130D01*
X6656Y2130D02*
X6656Y2130D01*
X6656Y2010D01*
X6656Y2010D02*
X6656Y2010D01*
X6611Y1965D01*
X6611Y1965D02*
X6611Y1965D01*
X6611Y1915D01*
X6556Y1870D02*
X6556Y1870D01*
X6556Y2460D01*
X6456Y2430D02*
X6456Y2430D01*
X6456Y1740D01*
X6456Y1740D02*
X6456Y1740D01*
X6436Y1720D01*
X6436Y1720D02*
X6436Y1720D01*
X6426Y1710D01*
X6426Y1710D02*
X6426Y1710D01*
X6426Y1470D01*
X6481Y1433D02*
X6481Y1433D01*
X6481Y1695D01*
X6481Y1695D02*
X6481Y1695D01*
X6686Y1695D01*
X6686Y1695D02*
X6686Y1695D01*
X6686Y1940D01*
X6686Y1940D02*
X6686Y1940D01*
X6696Y1950D01*
X6696Y1950D02*
X6696Y1950D01*
X6707Y1960D01*
X6707Y1960D02*
X6707Y1960D01*
X6707Y2107D01*
X6707Y2107D02*
X6707Y2107D01*
X6786Y2107D01*
X6786Y2107D02*
X6786Y2107D01*
X6786Y2365D01*
X6606Y2180D02*
X6606Y2180D01*
X6656Y2130D01*
X6507Y2107D02*
X6507Y2107D01*
X6507Y1918D01*
X6396Y1865D02*
X6396Y1865D01*
X6396Y2215D01*
X6396Y2215D02*
X6396Y2215D01*
X6346Y2265D01*
X6346Y2265D02*
X6346Y2265D01*
X6346Y2515D01*
X6376Y2610D02*
X6376Y2610D01*
X6407Y2610D01*
X6407Y2610D02*
X6407Y2610D01*
X6407Y2407D01*
X6436Y2450D02*
X6436Y2450D01*
X6456Y2430D01*
X6436Y2450D02*
X6436Y2450D01*
X6436Y2630D01*
X6436Y2630D02*
X6436Y2630D01*
X6426Y2640D01*
X6426Y2640D02*
X6426Y2640D01*
X6372Y2683D01*
X6372Y2683D02*
X6372Y2683D01*
X6372Y3203D01*
X6372Y3203D02*
X6372Y3203D01*
X6435Y3265D01*
X6435Y3265D02*
X6435Y3265D01*
X6436Y3796D01*
X6436Y3796D02*
X6436Y3796D01*
X6436Y3950D01*
X6327Y3900D02*
X6327Y3900D01*
X6327Y3796D01*
X6327Y3796D02*
X6327Y3796D01*
X6327Y3380D01*
X6327Y3380D02*
X6327Y3380D01*
X6296Y3349D01*
X6296Y3350D02*
X6296Y3350D01*
X6296Y1950D01*
X6296Y1950D02*
X6296Y1950D01*
X6286Y1940D01*
X6286Y1940D02*
X6286Y1940D01*
X6286Y1370D01*
X6136Y1310D02*
X6136Y1310D01*
X6136Y2640D01*
X6136Y2640D02*
X6136Y2640D01*
X6146Y2650D01*
X6146Y2650D02*
X6146Y2650D01*
X6146Y3080D01*
X6146Y3080D02*
X6146Y3080D01*
X6164Y3090D01*
X6164Y3090D02*
X6164Y3090D01*
X6164Y3686D01*
X6218Y3796D02*
X6218Y3796D01*
X6218Y3140D01*
X6201Y2945D02*
X6201Y2945D01*
X6201Y2680D01*
X6201Y2680D02*
X6201Y2680D01*
X6216Y2670D01*
X6216Y2670D02*
X6216Y2670D01*
X6236Y2650D01*
X6236Y2650D02*
X6236Y2650D01*
X6246Y2640D01*
X6246Y2640D02*
X6246Y2640D01*
X6246Y2515D01*
X6246Y2515D02*
X6246Y2515D01*
X6191Y2515D01*
X6246Y2460D02*
X6246Y2460D01*
X6246Y2190D01*
X6246Y2190D02*
X6246Y2190D01*
X6236Y2180D01*
X6236Y2180D02*
X6236Y2180D01*
X6236Y2080D01*
X6236Y2080D02*
X6236Y2080D01*
X6226Y2070D01*
X6226Y2070D02*
X6226Y2070D01*
X6206Y2050D01*
X6206Y2050D02*
X6206Y2050D01*
X6191Y2040D01*
X6191Y2040D02*
X6191Y2040D01*
X6191Y1965D01*
X6086Y2050D02*
X6086Y2050D01*
X6086Y2190D01*
X6086Y2190D02*
X6086Y2190D01*
X6096Y2200D01*
X6096Y2200D02*
X6096Y2200D01*
X6096Y2890D01*
X6006Y2945D02*
X6006Y2945D01*
X6006Y3140D01*
X5801Y3140D02*
X5801Y3140D01*
X5801Y3350D01*
X5856Y3445D02*
X5856Y3445D01*
X5856Y2820D01*
X5856Y2820D02*
X5856Y2820D01*
X5836Y2800D01*
X5836Y2800D02*
X5836Y2800D01*
X5838Y2041D01*
X5838Y2041D02*
X5838Y2041D01*
X5854Y2025D01*
X5854Y2025D02*
X5854Y2025D01*
X5853Y1145D01*
X5962Y1145D02*
X5962Y1145D01*
X5962Y1570D01*
X5907Y1470D02*
X5907Y1470D01*
X5907Y1255D01*
X5798Y1255D02*
X5798Y1255D01*
X5798Y1370D01*
X5689Y1420D02*
X5689Y1420D01*
X5689Y1255D01*
X5635Y1145D02*
X5635Y1145D01*
X5635Y1620D01*
X5525Y1638D02*
X5525Y1638D01*
X5737Y1850D01*
X5738Y1851D02*
X5738Y1851D01*
X5738Y2490D01*
X5739Y2488D02*
X5739Y2488D01*
X5739Y2516D01*
X5739Y2516D02*
X5739Y2516D01*
X5756Y2533D01*
X5756Y2533D02*
X5756Y2533D01*
X5756Y2747D01*
X5756Y2745D02*
X5756Y2745D01*
X5756Y3600D01*
X5956Y3540D02*
X5956Y3540D01*
X5956Y2820D01*
X5956Y2820D02*
X5956Y2820D01*
X5936Y2800D01*
X5936Y2800D02*
X5936Y2800D01*
X5936Y2064D01*
X5936Y2064D02*
X5936Y2064D01*
X5976Y2024D01*
X5977Y2026D02*
X5977Y2026D01*
X5976Y1890D01*
X5976Y1890D02*
X5976Y1890D01*
X5996Y1870D01*
X5996Y1870D02*
X5996Y1870D01*
X6016Y1850D01*
X6016Y1850D02*
X6016Y1850D01*
X6016Y1255D01*
X6071Y1145D02*
X6071Y1145D01*
X6071Y1420D01*
X5525Y1638D02*
X5525Y1638D01*
X5525Y1146D01*
X5417Y1145D02*
X5417Y1145D01*
X5417Y1310D01*
X5471Y1255D02*
X5471Y1255D01*
X5471Y1882D01*
X5471Y1882D02*
X5471Y1882D01*
X5546Y1882D01*
X5546Y1882D02*
X5546Y1882D01*
X5546Y2175D01*
X5546Y2175D02*
X5546Y2175D01*
X5471Y2175D01*
X5546Y2110D02*
X5546Y2110D01*
X5687Y2110D01*
X5687Y2110D02*
X5687Y2110D01*
X5687Y2215D01*
X5616Y2180D02*
X5616Y2180D01*
X5616Y2470D01*
X5616Y2470D02*
X5616Y2470D01*
X5551Y2535D01*
X5551Y2535D02*
X5551Y2535D01*
X5551Y2855D01*
X5551Y2855D02*
X5551Y2855D01*
X5576Y2880D01*
X5576Y2880D02*
X5576Y2880D01*
X5576Y2905D01*
X5461Y2955D02*
X5461Y2955D01*
X5236Y2955D01*
X5236Y2955D02*
X5236Y2955D01*
X5236Y3145D01*
X5136Y3145D02*
X5136Y3145D01*
X5136Y3246D01*
X5136Y3246D02*
X5136Y3246D01*
X5200Y3310D01*
X5200Y3310D02*
X5200Y3310D01*
X5321Y3310D01*
X5200Y3310D02*
X5200Y3310D01*
X5200Y3686D01*
X5091Y3686D02*
X5091Y3686D01*
X5091Y3390D01*
X5066Y3350D02*
X5066Y3350D01*
X5046Y3370D01*
X5046Y3370D02*
X5046Y3370D01*
X5046Y3540D01*
X4982Y3686D02*
X4982Y3686D01*
X4982Y3220D01*
X4936Y3145D02*
X4936Y3145D01*
X4936Y3140D01*
X4936Y3140D02*
X4936Y3140D01*
X4876Y3140D01*
X4876Y3140D02*
X4876Y3140D01*
X4876Y2761D01*
X4876Y2763D02*
X4876Y2763D01*
X4904Y2735D01*
X4904Y2735D02*
X4904Y2735D01*
X4904Y2610D01*
X4904Y2610D02*
X4904Y2610D01*
X4928Y2610D01*
X4928Y2610D02*
X4928Y2610D01*
X4928Y2404D01*
X4970Y2349D02*
X4970Y2349D01*
X4970Y2688D01*
X4970Y2688D02*
X4970Y2688D01*
X4988Y2706D01*
X4988Y2706D02*
X4988Y2706D01*
X4988Y2985D01*
X4823Y2985D02*
X4823Y2985D01*
X4823Y3576D01*
X4823Y3576D02*
X4823Y3576D01*
X4871Y3624D01*
X4871Y3624D02*
X4871Y3624D01*
X4871Y3684D01*
X4764Y3686D02*
X4764Y3686D01*
X4764Y2730D01*
X4765Y2731D02*
X4765Y2731D01*
X4786Y2710D01*
X4786Y2710D02*
X4786Y2710D01*
X4786Y1320D01*
X4926Y1255D02*
X4926Y1255D01*
X4926Y1780D01*
X4967Y1825D02*
X4967Y1825D01*
X4967Y1985D01*
X4967Y1985D02*
X4967Y1985D01*
X4920Y2032D01*
X4920Y2032D02*
X4920Y2032D01*
X4920Y2097D01*
X4994Y2226D02*
X4994Y2226D01*
X4994Y2325D01*
X4994Y2325D02*
X4994Y2325D01*
X4970Y2349D01*
X5127Y2296D02*
X5127Y2296D01*
X5127Y2106D01*
X5076Y2056D02*
X5076Y2056D01*
X5076Y2810D01*
X5076Y2810D02*
X5076Y2810D01*
X5086Y2820D01*
X5086Y2820D02*
X5086Y2820D01*
X5086Y3330D01*
X5086Y3330D02*
X5086Y3330D01*
X5066Y3350D01*
X5036Y3310D02*
X5036Y3310D01*
X5036Y3145D01*
X5136Y2845D02*
X5136Y2845D01*
X5136Y2840D01*
X5136Y2840D02*
X5136Y2840D01*
X5176Y2840D01*
X5176Y2840D02*
X5176Y2840D01*
X5174Y2341D01*
X5174Y2341D02*
X5174Y2341D01*
X5128Y2295D01*
X5171Y2226D02*
X5171Y2226D01*
X5171Y1733D01*
X5171Y1734D02*
X5171Y1734D01*
X5306Y1599D01*
X5306Y1599D02*
X5306Y1599D01*
X5306Y1137D01*
X5090Y1145D02*
X5090Y1145D01*
X5091Y2040D01*
X5091Y2040D02*
X5091Y2040D01*
X5076Y2056D01*
X5225Y2103D02*
X5225Y2103D01*
X5225Y2271D01*
X5286Y2320D02*
X5286Y2320D01*
X5286Y2090D01*
X5286Y2090D02*
X5286Y2090D01*
X5276Y2080D01*
X5276Y2080D02*
X5276Y2080D01*
X5276Y1915D01*
X5336Y1982D02*
X5336Y1982D01*
X5471Y1982D01*
X5386Y2045D02*
X5386Y2045D01*
X5386Y2465D01*
X5386Y2465D02*
X5386Y2465D01*
X5351Y2500D01*
X5351Y2500D02*
X5351Y2500D01*
X5311Y2500D01*
X5311Y2500D02*
X5311Y2500D01*
X5236Y2575D01*
X5236Y2575D02*
X5236Y2575D01*
X5236Y2840D01*
X5381Y2955D02*
X5381Y2955D01*
X5381Y2570D01*
X5381Y2570D02*
X5381Y2570D01*
X5441Y2510D01*
X5441Y2510D02*
X5441Y2510D01*
X5466Y2510D01*
X5466Y2510D02*
X5466Y2510D01*
X5546Y2430D01*
X5546Y2430D02*
X5546Y2430D01*
X5546Y1880D01*
X5336Y1982D02*
X5336Y1982D01*
X5336Y2404D01*
X5128Y2404D02*
X5128Y2404D01*
X5128Y2610D01*
X4756Y2565D02*
X4756Y2565D01*
X4756Y2690D01*
X4756Y2690D02*
X4756Y2690D01*
X4712Y2734D01*
X4711Y2730D02*
X4711Y2730D01*
X4711Y2935D01*
X4711Y2935D02*
X4711Y2935D01*
X4476Y2935D01*
X4476Y2935D02*
X4476Y2935D01*
X4476Y3140D01*
X4276Y3140D02*
X4276Y3140D01*
X4276Y3490D01*
X4176Y3140D02*
X4176Y3140D01*
X3971Y3140D01*
X3971Y3140D02*
X3971Y3140D01*
X3971Y3025D01*
X3971Y2925D02*
X3971Y2925D01*
X3971Y2807D01*
X3973Y2809D02*
X3973Y2809D01*
X3908Y2744D01*
X3908Y2744D02*
X3908Y2744D01*
X3908Y2515D01*
X3908Y2515D02*
X3908Y2515D01*
X3991Y2515D01*
X3991Y2515D02*
X3991Y2515D01*
X4066Y2515D01*
X4066Y2515D02*
X4066Y2515D01*
X4066Y2197D01*
X4066Y2197D02*
X4066Y2197D01*
X3986Y2197D01*
X3906Y2197D02*
X3906Y2197D01*
X3906Y1882D01*
X3906Y1882D02*
X3906Y1882D01*
X3986Y1882D01*
X3931Y1880D02*
X3931Y1880D01*
X3931Y1375D01*
X3931Y1375D02*
X3931Y1375D01*
X3971Y1335D01*
X3970Y1336D02*
X3970Y1336D01*
X4023Y1336D01*
X4016Y1335D02*
X4016Y1335D01*
X4101Y1250D01*
X4101Y1250D02*
X4101Y1250D01*
X4101Y1080D01*
X4106Y1075D02*
X4106Y1075D01*
X4056Y1025D01*
X4056Y1025D02*
X4056Y1025D01*
X4006Y1025D01*
X3851Y1062D02*
X3851Y1062D01*
X3827Y1062D01*
X3836Y1063D02*
X3836Y1063D01*
X3629Y1063D01*
X3561Y1010D02*
X3561Y1010D01*
X3531Y980D01*
X3531Y980D02*
X3531Y980D01*
X2886Y980D01*
X2886Y980D02*
X2886Y980D01*
X2846Y1020D01*
X2846Y1020D02*
X2846Y1020D01*
X2846Y1090D01*
X2846Y1090D02*
X2846Y1090D01*
X2931Y1175D01*
X2931Y1175D02*
X2931Y1175D01*
X2931Y1225D01*
X3035Y1237D02*
X3035Y1237D01*
X3035Y1063D01*
X3035Y1063D02*
X3035Y1063D01*
X3229Y1063D01*
X3229Y1063D02*
X3229Y1063D01*
X3513Y1063D01*
X3513Y1063D02*
X3513Y1063D01*
X3513Y1243D01*
X3561Y1160D02*
X3561Y1160D01*
X3611Y1210D01*
X3611Y1210D02*
X3611Y1210D01*
X3611Y1240D01*
X3561Y1160D02*
X3561Y1160D01*
X3561Y1010D01*
X3786Y1139D02*
X3786Y1139D01*
X3786Y1543D01*
X3786Y1543D02*
X3786Y1543D01*
X3713Y1543D01*
X3851Y1439D02*
X3851Y1439D01*
X3851Y1735D01*
X3803Y1918D02*
X3803Y1918D01*
X3706Y1918D01*
X3706Y1918D02*
X3706Y1918D01*
X3706Y2360D01*
X3706Y2360D02*
X3706Y2360D01*
X3655Y2410D01*
X3655Y2410D02*
X3655Y2410D01*
X3655Y2615D01*
X3606Y2709D02*
X3606Y2709D01*
X3606Y2340D01*
X3606Y2340D02*
X3606Y2340D01*
X3655Y2340D01*
X3655Y2340D02*
X3655Y2340D01*
X3655Y2110D01*
X3755Y2110D02*
X3755Y2110D01*
X3755Y2297D01*
X3755Y2410D02*
X3755Y2410D01*
X3836Y2410D01*
X3836Y2410D02*
X3836Y2410D01*
X3836Y1982D01*
X3555Y1918D02*
X3555Y1918D01*
X3403Y1918D01*
X3403Y1918D02*
X3403Y1918D01*
X3403Y2490D01*
X3455Y2410D02*
X3455Y2410D01*
X3455Y2610D01*
X3455Y2610D02*
X3455Y2610D01*
X3421Y2610D01*
X3421Y2610D02*
X3421Y2610D01*
X3421Y2615D01*
X3421Y2615D02*
X3421Y2615D01*
X3421Y2710D01*
X3420Y2708D02*
X3420Y2708D01*
X3396Y2734D01*
X3396Y2734D02*
X3396Y2734D01*
X3395Y3030D01*
X3395Y3030D02*
X3395Y3030D01*
X3396Y3150D01*
X3396Y3150D02*
X3396Y3150D01*
X3456Y3150D01*
X3416Y3210D02*
X3416Y3210D01*
X3496Y3210D01*
X3496Y3210D02*
X3496Y3210D01*
X3556Y3150D01*
X3556Y3230D02*
X3556Y3230D01*
X3611Y3285D01*
X3611Y3285D02*
X3611Y3285D01*
X3611Y3445D01*
X3611Y3445D02*
X3611Y3445D01*
X3531Y3525D01*
X3531Y3525D02*
X3531Y3525D01*
X3531Y3680D01*
X3423Y3686D02*
X3423Y3686D01*
X3423Y3540D01*
X3376Y3630D02*
X3376Y3630D01*
X3376Y3305D01*
X3376Y3305D02*
X3376Y3305D01*
X3496Y3305D01*
X3416Y3305D02*
X3416Y3305D01*
X3416Y3210D01*
X3191Y3228D02*
X3191Y3228D01*
X2942Y3477D01*
X2942Y3477D02*
X2942Y3477D01*
X2678Y3477D01*
X2678Y3477D02*
X2678Y3477D01*
X2624Y3423D01*
X2624Y3423D02*
X2624Y3423D01*
X2624Y3144D01*
X2646Y3140D02*
X2646Y3140D01*
X2506Y3140D01*
X2506Y3140D02*
X2506Y3140D01*
X2506Y3075D01*
X2506Y3075D02*
X2506Y3075D01*
X2431Y3075D01*
X2431Y2975D02*
X2431Y2975D01*
X2431Y2760D01*
X2431Y2760D02*
X2431Y2760D01*
X2446Y2750D01*
X2446Y2750D02*
X2446Y2750D01*
X2466Y2730D01*
X2466Y2730D02*
X2466Y2730D01*
X2466Y2605D01*
X2466Y2605D02*
X2466Y2605D01*
X2411Y2605D01*
X2411Y2605D02*
X2411Y2605D01*
X2411Y2490D01*
X2411Y2490D02*
X2411Y2490D01*
X2456Y2445D01*
X2456Y2445D02*
X2456Y2445D01*
X2456Y2289D01*
X2456Y2289D02*
X2456Y2289D01*
X2402Y2235D01*
X2399Y2229D02*
X2399Y2229D01*
X2474Y2154D01*
X2474Y2154D02*
X2474Y2154D01*
X2474Y1887D01*
X2476Y1888D02*
X2476Y1888D01*
X2476Y1537D01*
X2540Y1536D02*
X2540Y1536D01*
X2540Y1602D01*
X2540Y1602D02*
X2540Y1602D01*
X2525Y1617D01*
X2525Y1617D02*
X2525Y1617D01*
X2525Y1734D01*
X2526Y1735D02*
X2526Y1735D01*
X2525Y2334D01*
X2633Y2413D02*
X2633Y2413D01*
X2633Y2220D01*
X2633Y2220D02*
X2633Y2220D01*
X2646Y2210D01*
X2646Y2210D02*
X2646Y2210D01*
X2666Y2190D01*
X2733Y2113D02*
X2733Y2113D01*
X2733Y1918D01*
X2733Y1918D02*
X2733Y1918D01*
X2578Y1918D01*
X2578Y1918D02*
X2578Y1918D01*
X2578Y2520D01*
X2591Y2610D02*
X2591Y2610D01*
X2633Y2610D01*
X2633Y2610D02*
X2633Y2610D01*
X2633Y2413D01*
X2785Y2370D02*
X2785Y2370D01*
X2785Y1990D01*
X2785Y1990D02*
X2785Y1990D01*
X2978Y1990D01*
X2978Y1990D02*
X2978Y1990D01*
X2978Y1918D01*
X3035Y1897D02*
X3035Y1897D01*
X3035Y1537D01*
X3035Y1537D02*
X3035Y1537D01*
X3035Y1339D01*
X3126Y1435D02*
X3126Y1435D01*
X3126Y1170D01*
X3126Y1170D02*
X3126Y1170D01*
X3126Y1155D01*
X3126Y1155D02*
X3126Y1155D01*
X3091Y1120D01*
X3221Y1243D02*
X3221Y1243D01*
X3413Y1243D01*
X3446Y1320D02*
X3446Y1320D01*
X3713Y1320D01*
X3713Y1320D02*
X3713Y1320D01*
X3713Y1243D01*
X3851Y1062D02*
X3851Y1062D01*
X3851Y1434D01*
X3446Y1320D02*
X3446Y1320D01*
X3426Y1340D01*
X3426Y1340D02*
X3426Y1340D01*
X3413Y1350D01*
X3413Y1350D02*
X3413Y1350D01*
X3413Y1543D01*
X3413Y1543D02*
X3413Y1543D01*
X3413Y1730D01*
X3413Y1730D02*
X3413Y1730D01*
X3451Y1730D01*
X3451Y1730D02*
X3451Y1730D01*
X3451Y1735D01*
X3555Y1918D02*
X3555Y1918D01*
X3555Y2110D01*
X3266Y2245D02*
X3266Y2245D01*
X3191Y2245D01*
X3191Y2245D02*
X3191Y2245D01*
X3116Y2245D01*
X3116Y2245D02*
X3116Y2245D01*
X3116Y2615D01*
X3116Y2615D02*
X3116Y2615D01*
X3191Y2615D01*
X3191Y2615D02*
X3191Y2615D01*
X3266Y2615D01*
X3266Y2615D02*
X3266Y2615D01*
X3266Y2935D01*
X3266Y2935D02*
X3266Y2935D01*
X3191Y2935D01*
X3191Y3036D02*
X3191Y3036D01*
X3191Y3228D01*
X2946Y3140D02*
X2946Y3140D01*
X2946Y2935D01*
X2946Y2975D02*
X2946Y2975D01*
X2431Y2975D01*
X2431Y2975D02*
X2431Y2975D01*
X2196Y2975D01*
X2196Y2975D02*
X2196Y2975D01*
X2196Y3150D01*
X2196Y3145D02*
X2196Y3145D01*
X2196Y3210D01*
X2196Y3210D02*
X2196Y3210D01*
X2086Y3320D01*
X2086Y3315D02*
X2086Y3315D01*
X2086Y3690D01*
X2136Y3796D02*
X2136Y3796D01*
X2136Y3950D01*
X2141Y3950D02*
X2141Y3950D01*
X1481Y3950D01*
X1481Y3950D02*
X1481Y3950D01*
X1281Y3750D01*
X1281Y3750D02*
X1281Y3750D01*
X1281Y3370D01*
X1281Y3370D02*
X1281Y3370D01*
X986Y3075D01*
X986Y3075D02*
X986Y3075D01*
X986Y2165D01*
X986Y2165D02*
X986Y2165D01*
X916Y2095D01*
X916Y2095D02*
X916Y2095D01*
X916Y1655D01*
X916Y1659D02*
X916Y1659D01*
X721Y1659D01*
X796Y1713D02*
X796Y1713D01*
X796Y1877D01*
X866Y1765D02*
X866Y1765D01*
X866Y2170D01*
X866Y2170D02*
X866Y2170D01*
X916Y2220D01*
X916Y2220D02*
X916Y2220D01*
X916Y3155D01*
X916Y3155D02*
X916Y3155D01*
X1191Y3430D01*
X1191Y3430D02*
X1191Y3430D01*
X1191Y3765D01*
X1191Y3765D02*
X1191Y3765D01*
X1326Y3900D01*
X1301Y4000D02*
X1301Y4000D01*
X1111Y3810D01*
X1111Y3810D02*
X1111Y3810D01*
X1111Y3510D01*
X1111Y3510D02*
X1111Y3510D01*
X901Y3300D01*
X901Y3300D02*
X901Y3300D01*
X851Y3300D01*
X851Y3300D02*
X851Y3300D01*
X602Y3300D01*
X602Y3300D02*
X602Y3300D01*
X517Y3215D01*
X517Y3215D02*
X517Y3215D01*
X517Y1550D01*
X516Y1550D02*
X516Y1550D01*
X721Y1550D01*
X827Y1604D02*
X827Y1604D01*
X896Y1535D01*
X896Y1535D02*
X896Y1535D01*
X896Y1090D01*
X896Y1090D02*
X896Y1090D01*
X951Y1035D01*
X951Y1035D02*
X951Y1035D01*
X1171Y1035D01*
X1171Y1035D02*
X1171Y1035D01*
X1321Y885D01*
X1321Y885D02*
X1321Y885D01*
X2401Y885D01*
X2401Y885D02*
X2401Y885D01*
X2526Y1010D01*
X2526Y1010D02*
X2526Y1010D01*
X2526Y1050D01*
X2536Y1045D02*
X2536Y1045D01*
X2606Y1115D01*
X2606Y1115D02*
X2606Y1115D01*
X2606Y1285D01*
X2606Y1285D02*
X2606Y1285D01*
X2671Y1350D01*
X2671Y1350D02*
X2671Y1350D01*
X2731Y1350D01*
X2731Y1350D02*
X2731Y1350D01*
X2831Y1450D01*
X2831Y1450D02*
X2831Y1450D01*
X2831Y1535D01*
X2735Y1537D02*
X2735Y1537D01*
X2541Y1537D01*
X2541Y1537D02*
X2541Y1537D01*
X2541Y1415D01*
X2351Y1315D02*
X2351Y1315D01*
X2351Y1537D01*
X2351Y1537D02*
X2351Y1537D01*
X2351Y1687D01*
X2251Y1537D02*
X2251Y1537D01*
X2251Y1880D01*
X2251Y1880D02*
X2251Y1880D01*
X2266Y1890D01*
X2266Y1890D02*
X2266Y1890D01*
X2266Y2570D01*
X2266Y2570D02*
X2266Y2570D01*
X2286Y2590D01*
X2286Y2590D02*
X2286Y2590D01*
X2286Y2920D01*
X2286Y2920D02*
X2286Y2920D01*
X2106Y2920D01*
X2106Y2920D02*
X2106Y2920D01*
X2096Y2930D01*
X2096Y2930D02*
X2096Y2930D01*
X2096Y3150D01*
X1996Y3150D02*
X1996Y3150D01*
X1996Y3440D01*
X2300Y3686D02*
X2300Y3686D01*
X2376Y3686D01*
X2376Y3686D02*
X2376Y3686D01*
X2376Y3300D01*
X2376Y3300D02*
X2376Y3300D01*
X2241Y3300D01*
X1996Y3300D02*
X1996Y3300D01*
X1841Y3300D01*
X1896Y3150D02*
X1896Y3150D01*
X1741Y3150D01*
X1741Y3150D02*
X1741Y3150D01*
X1741Y3040D01*
X1741Y2940D02*
X1741Y2940D01*
X1741Y2615D01*
X1726Y2615D02*
X1726Y2615D01*
X1726Y2115D01*
X1676Y2215D02*
X1676Y2215D01*
X1601Y2215D01*
X1676Y2215D02*
X1676Y2215D01*
X1676Y2850D01*
X1806Y2905D02*
X1806Y2905D01*
X1806Y2765D01*
X1806Y2765D02*
X1806Y2765D01*
X2016Y2555D01*
X2016Y2555D02*
X2016Y2555D01*
X2016Y2375D01*
X2016Y2430D02*
X2016Y2430D01*
X2016Y1630D01*
X2016Y1630D02*
X2016Y1630D01*
X2151Y1630D01*
X2151Y1630D02*
X2151Y1630D01*
X2151Y1537D01*
X2048Y1536D02*
X2048Y1536D01*
X2048Y1382D01*
X2048Y1383D02*
X2048Y1383D01*
X1934Y1269D01*
X1934Y1269D02*
X1934Y1269D01*
X1934Y1161D01*
X1934Y1161D02*
X1934Y1161D01*
X1880Y1107D01*
X1811Y1040D02*
X1811Y1040D01*
X1846Y1005D01*
X1846Y1005D02*
X1846Y1005D01*
X1876Y1005D01*
X1811Y1040D02*
X1811Y1040D01*
X1811Y1280D01*
X1811Y1280D02*
X1811Y1280D01*
X1871Y1340D01*
X1871Y1345D02*
X1871Y1345D01*
X1901Y1345D01*
X1901Y1345D02*
X1901Y1345D01*
X1961Y1405D01*
X1961Y1405D02*
X1961Y1405D01*
X1961Y1675D01*
X1861Y1687D02*
X1861Y1687D01*
X1736Y1687D01*
X1736Y1687D02*
X1736Y1687D01*
X1736Y1525D01*
X1736Y1525D02*
X1736Y1525D01*
X1661Y1525D01*
X1561Y1525D02*
X1561Y1525D01*
X1561Y1745D01*
X1561Y1745D02*
X1561Y1745D01*
X1691Y1745D01*
X1601Y1915D02*
X1601Y1915D01*
X1601Y2015D01*
X1546Y1915D02*
X1546Y1915D01*
X1546Y2790D01*
X1481Y2715D02*
X1481Y2715D01*
X1481Y3045D01*
X1381Y3045D02*
X1381Y3045D01*
X1381Y2940D01*
X1206Y2910D02*
X1206Y2910D01*
X1206Y2615D01*
X1206Y2615D02*
X1206Y2615D01*
X1301Y2615D01*
X1301Y2315D02*
X1301Y2315D01*
X1056Y2315D01*
X1056Y2315D02*
X1056Y2315D01*
X1056Y2115D01*
X1056Y2115D02*
X1056Y2115D01*
X1135Y2115D01*
X1132Y1960D02*
X1132Y1960D01*
X1376Y1960D01*
X1376Y1960D02*
X1376Y1960D01*
X1376Y2215D01*
X1376Y2215D02*
X1376Y2215D01*
X1301Y2215D01*
X1546Y1915D02*
X1546Y1915D01*
X1968Y1915D01*
X1968Y1915D02*
X1968Y1915D01*
X1968Y2113D01*
X2068Y2113D02*
X2068Y2113D01*
X2068Y2340D01*
X2068Y2340D02*
X2068Y2340D01*
X2086Y2350D01*
X2086Y2350D02*
X2086Y2350D01*
X2086Y2360D01*
X2086Y2360D02*
X2086Y2360D01*
X2106Y2380D01*
X2106Y2380D02*
X2106Y2380D01*
X2116Y2390D01*
X2116Y2390D02*
X2116Y2390D01*
X2116Y2850D01*
X2116Y2850D02*
X2116Y2850D01*
X2096Y2850D01*
X1991Y3090D02*
X1991Y3090D01*
X1806Y2905D01*
X1991Y3090D02*
X1991Y3090D01*
X1991Y3150D01*
X1868Y2610D02*
X1868Y2610D01*
X1868Y2413D01*
X1868Y2610D02*
X1868Y2610D01*
X1826Y2610D01*
X2225Y2610D02*
X2225Y2610D01*
X2225Y2085D01*
X2226Y2090D02*
X2226Y2090D01*
X2213Y2080D01*
X2213Y2080D02*
X2213Y2080D01*
X2213Y1915D01*
X2316Y1988D02*
X2316Y1988D01*
X2316Y2413D01*
X2168Y2335D02*
X2168Y2335D01*
X2168Y2113D01*
X2116Y2060D02*
X2116Y2060D01*
X2116Y1687D01*
X1871Y1600D02*
X1871Y1600D01*
X1871Y1445D01*
X1861Y1445D02*
X1861Y1445D01*
X1836Y1445D01*
X1836Y1445D02*
X1836Y1445D01*
X1751Y1360D01*
X1751Y1360D02*
X1751Y1360D01*
X1751Y1095D01*
X1751Y1095D02*
X1751Y1095D01*
X1711Y1055D01*
X1661Y1225D02*
X1661Y1225D01*
X1661Y1410D01*
X1661Y1410D02*
X1661Y1410D01*
X1361Y1410D01*
X1361Y1410D02*
X1361Y1410D01*
X1361Y1525D01*
X1361Y1525D02*
X1361Y1525D01*
X1361Y1600D01*
X1361Y1600D02*
X1361Y1600D01*
X1291Y1600D01*
X1291Y1600D02*
X1291Y1600D01*
X1291Y1745D01*
X1201Y1785D02*
X1201Y1785D01*
X1201Y1400D01*
X1201Y1400D02*
X1201Y1400D01*
X1141Y1340D01*
X1141Y1340D02*
X1141Y1340D01*
X1121Y1340D01*
X1121Y1335D02*
X1121Y1335D01*
X1121Y1225D01*
X1121Y1225D02*
X1121Y1225D01*
X1361Y1225D01*
X1561Y1225D02*
X1561Y1225D01*
X1561Y945D01*
X1561Y945D02*
X1561Y945D01*
X2151Y945D01*
X2151Y945D02*
X2151Y945D01*
X2151Y1237D01*
X2351Y1237D02*
X2351Y1237D01*
X2351Y950D01*
X2526Y845D02*
X2526Y845D01*
X2616Y935D01*
X2616Y935D02*
X2616Y935D01*
X4486Y935D01*
X4486Y935D02*
X4486Y935D01*
X4691Y1140D01*
X4691Y1140D02*
X4691Y1140D01*
X4766Y1140D01*
X4981Y1145D02*
X4981Y1145D01*
X4981Y1490D01*
X4701Y1935D02*
X4701Y1935D01*
X4606Y1935D01*
X4606Y1935D02*
X4606Y1935D01*
X4606Y2416D01*
X4606Y2416D02*
X4606Y2416D01*
X4484Y2416D01*
X4476Y2490D02*
X4476Y2490D01*
X4476Y2840D01*
X4376Y2840D02*
X4376Y2840D01*
X4336Y2840D01*
X4336Y2840D02*
X4336Y2840D01*
X4336Y2310D01*
X4336Y2310D02*
X4336Y2310D01*
X4346Y2300D01*
X4346Y2300D02*
X4346Y2300D01*
X4366Y2280D01*
X4366Y2280D02*
X4366Y2280D01*
X4384Y2270D01*
X4384Y2270D02*
X4384Y2270D01*
X4384Y2116D01*
X4284Y2116D02*
X4284Y2116D01*
X4284Y1918D01*
X4284Y1918D02*
X4284Y1918D01*
X4129Y1918D01*
X4129Y1918D02*
X4129Y1918D01*
X4129Y2490D01*
X4184Y2416D02*
X4184Y2416D01*
X4184Y2610D01*
X4184Y2610D02*
X4184Y2610D01*
X4136Y2610D01*
X4136Y2610D02*
X4136Y2610D01*
X4136Y2770D01*
X4136Y2770D02*
X4136Y2770D01*
X4116Y2790D01*
X4116Y2790D02*
X4116Y2790D01*
X4116Y3140D01*
X4116Y3140D02*
X4116Y3140D01*
X4176Y3140D01*
X3971Y2925D02*
X3971Y2925D01*
X3756Y2925D01*
X3756Y2925D02*
X3756Y2925D01*
X3756Y3150D01*
X3656Y3150D02*
X3656Y3150D01*
X3656Y3211D01*
X3656Y3211D02*
X3656Y3211D01*
X3750Y3305D01*
X3750Y3305D02*
X3750Y3305D01*
X3750Y3686D01*
X3695Y3796D02*
X3695Y3796D01*
X3695Y4000D01*
X3695Y4000D02*
X3695Y4000D01*
X5145Y4000D01*
X5145Y4000D02*
X5145Y4000D01*
X5145Y3796D01*
X5036Y3796D02*
X5036Y3796D01*
X5036Y3950D01*
X4927Y3900D02*
X4927Y3900D01*
X4927Y3796D01*
X5145Y4000D02*
X5145Y4000D01*
X6545Y4000D01*
X6545Y4000D02*
X6545Y4000D01*
X6545Y3796D01*
X6596Y3685D02*
X6596Y3685D01*
X6596Y3640D01*
X6596Y3640D02*
X6596Y3640D01*
X6631Y3605D01*
X6631Y3605D02*
X6631Y3605D01*
X6631Y3430D01*
X6631Y3430D02*
X6631Y3430D01*
X6751Y3310D01*
X6751Y3310D02*
X6751Y3310D01*
X6636Y3195D01*
X6636Y3195D02*
X6636Y3195D01*
X6636Y3140D01*
X6536Y3140D02*
X6536Y3140D01*
X6536Y3305D01*
X6536Y3305D02*
X6536Y3305D01*
X6491Y3350D01*
X6491Y3350D02*
X6491Y3350D01*
X6491Y3686D01*
X5706Y3140D02*
X5706Y3140D01*
X5461Y3140D01*
X5461Y3140D02*
X5461Y3140D01*
X5461Y3055D01*
X5633Y2592D02*
X5633Y2592D01*
X5684Y2541D01*
X5684Y2541D02*
X5684Y2541D01*
X5684Y2409D01*
X5887Y2410D02*
X5887Y2410D01*
X5887Y2260D01*
X5987Y2315D02*
X5987Y2315D01*
X5987Y2110D01*
X6026Y2070D02*
X6026Y2070D01*
X6046Y2090D01*
X6046Y2090D02*
X6046Y2090D01*
X6046Y2260D01*
X6026Y2070D02*
X6026Y2070D01*
X6026Y1915D01*
X6407Y2005D02*
X6407Y2005D01*
X6407Y2107D01*
X6376Y2610D02*
X6376Y2610D01*
X6376Y2615D01*
X6881Y1695D02*
X6881Y1695D01*
X6881Y1580D01*
X6881Y1580D02*
X6881Y1580D01*
X6896Y1570D01*
X6896Y1570D02*
X6896Y1570D01*
X6916Y1550D01*
X6916Y1550D02*
X6916Y1550D01*
X6936Y1530D01*
X6936Y1530D02*
X6936Y1530D01*
X6936Y1460D01*
X6936Y1460D02*
X6936Y1460D01*
X6946Y1450D01*
X7034Y1299D02*
X7034Y1299D01*
X7118Y1215D01*
X7221Y1213D02*
X7221Y1213D01*
X7221Y1060D01*
X7221Y1060D02*
X7221Y1060D01*
X6966Y1060D01*
X7034Y1299D02*
X7034Y1299D01*
X7034Y1719D01*
X7216Y1710D02*
X7216Y1710D01*
X7216Y1513D01*
X7216Y1513D02*
X7216Y1513D01*
X7221Y1513D01*
X7496Y1398D02*
X7496Y1398D01*
X7565Y1467D01*
X7565Y1467D02*
X7565Y1467D01*
X7619Y1467D01*
X7619Y1369D02*
X7619Y1369D01*
X7619Y1360D01*
X7847Y1431D02*
X7847Y1431D01*
X7964Y1314D01*
X7847Y1431D02*
X7847Y1431D01*
X7847Y1503D01*
X7564Y1620D02*
X7564Y1620D01*
X7564Y3686D01*
X7486Y3725D02*
X7486Y3725D01*
X7486Y3145D01*
X7486Y3145D02*
X7486Y3145D01*
X7486Y2925D01*
X7486Y3725D02*
X7486Y3725D01*
X7556Y3795D01*
X7556Y3795D02*
X7556Y3795D01*
X7621Y3795D01*
X7621Y3795D02*
X7621Y3795D01*
X7676Y3740D01*
X7676Y3740D02*
X7676Y3740D01*
X7726Y3740D01*
X7726Y3740D02*
X7726Y3740D01*
X7776Y3690D01*
X7836Y3796D02*
X7836Y3796D01*
X7836Y3950D01*
X7945Y4000D02*
X7945Y4000D01*
X7945Y3796D01*
X7945Y4000D02*
X7945Y4000D01*
X6545Y4000D01*
X8461Y3145D02*
X8461Y3145D01*
X8691Y3145D01*
X8791Y3145D02*
X8791Y3145D01*
X8791Y3370D01*
X8461Y3145D02*
X8461Y3145D01*
X8461Y3015D01*
X8466Y3015D02*
X8466Y3015D01*
X8496Y3015D01*
X8496Y3015D02*
X8496Y3015D01*
X8556Y2955D01*
X8556Y2955D02*
X8556Y2955D01*
X8556Y2655D01*
X8556Y2655D02*
X8556Y2655D01*
X8596Y2615D01*
X8598Y2624D02*
X8598Y2624D01*
X8598Y2413D01*
X8598Y2413D02*
X8598Y2413D01*
X8600Y2413D01*
X8491Y2545D02*
X8491Y2545D01*
X8411Y2545D01*
X8311Y2755D02*
X8311Y2755D01*
X8311Y2325D01*
X8311Y2325D02*
X8311Y2325D01*
X8246Y2260D01*
X8246Y2260D02*
X8246Y2260D01*
X8246Y2035D01*
X8186Y2110D02*
X8186Y2110D01*
X8186Y2295D01*
X8135Y2325D02*
X8135Y2325D01*
X8183Y2373D01*
X8183Y2373D02*
X8183Y2373D01*
X8183Y2406D01*
X8136Y2390D02*
X8136Y2390D01*
X8126Y2380D01*
X8126Y2380D02*
X8126Y2380D01*
X8106Y2360D01*
X8106Y2360D02*
X8106Y2360D01*
X8086Y2340D01*
X8086Y2340D02*
X8086Y2340D01*
X8086Y2110D01*
X8135Y1926D02*
X8135Y1926D01*
X8135Y2325D01*
X8136Y2390D02*
X8136Y2390D01*
X8136Y2850D01*
X8136Y2850D02*
X8136Y2850D01*
X8116Y2850D01*
X8211Y2855D02*
X8211Y2855D01*
X8311Y2755D01*
X8081Y2403D02*
X8081Y2403D01*
X8036Y2358D01*
X8036Y2358D02*
X8036Y2358D01*
X8036Y1905D01*
X8036Y1905D02*
X8036Y1905D01*
X8096Y1845D01*
X8096Y1845D02*
X8096Y1845D01*
X8228Y1845D01*
X8795Y2115D02*
X8795Y2115D01*
X8795Y2175D01*
X8795Y2175D02*
X8795Y2175D01*
X8750Y2220D01*
X8750Y2220D02*
X8750Y2220D01*
X8750Y2664D01*
X8750Y2664D02*
X8750Y2664D01*
X8789Y2703D01*
X8789Y2703D02*
X8789Y2703D01*
X8789Y2844D01*
X8924Y2961D02*
X8924Y2961D01*
X8990Y2895D01*
X8990Y2895D02*
X8990Y2895D01*
X8990Y2850D01*
X8990Y2622D02*
X8990Y2622D01*
X8900Y2622D01*
X8900Y2622D02*
X8900Y2622D01*
X8795Y2517D01*
X8795Y2517D02*
X8795Y2517D01*
X8795Y2412D01*
X9170Y2509D02*
X9170Y2509D01*
X9245Y2509D01*
X9245Y2509D02*
X9245Y2509D01*
X9245Y2935D01*
X9245Y2935D02*
X9245Y2935D01*
X9749Y2935D01*
X9749Y2935D02*
X9749Y2935D01*
X9749Y3151D01*
X9749Y3151D02*
X9749Y3151D01*
X9749Y3260D01*
X9749Y3260D02*
X9749Y3260D01*
X9736Y3270D01*
X9736Y3270D02*
X9736Y3270D01*
X9736Y3352D01*
X9649Y3295D02*
X9649Y3295D01*
X9649Y3151D01*
X9649Y2851D02*
X9649Y2851D01*
X9649Y2670D01*
X9649Y2670D02*
X9649Y2670D01*
X9666Y2660D01*
X9666Y2660D02*
X9666Y2660D01*
X9666Y2260D01*
X9666Y2260D02*
X9666Y2260D01*
X9613Y2260D01*
X9613Y2260D02*
X9613Y2260D01*
X9613Y2107D01*
X9513Y2107D02*
X9513Y2107D01*
X9513Y1909D01*
X9513Y1909D02*
X9513Y1909D01*
X9393Y1909D01*
X9413Y2031D02*
X9413Y2031D01*
X9248Y1866D01*
X9203Y1914D02*
X9203Y1914D01*
X9173Y1914D01*
X9413Y2031D02*
X9413Y2031D01*
X9413Y2103D01*
X9413Y2407D02*
X9413Y2407D01*
X9413Y2480D01*
X9413Y2480D02*
X9413Y2480D01*
X9349Y2480D01*
X9349Y2480D02*
X9349Y2480D01*
X9349Y2608D01*
X9846Y1998D02*
X9846Y1998D01*
X9846Y3890D01*
X10126Y3990D02*
X10126Y3990D01*
X10126Y1780D01*
X10316Y2050D02*
X10316Y2050D01*
X10316Y890D01*
X10256Y890D02*
X10256Y890D01*
X5026Y890D01*
X5026Y890D02*
X5026Y890D01*
X5026Y1250D01*
X4529Y1918D02*
X4529Y1918D01*
X4529Y2080D01*
X4529Y2080D02*
X4529Y2080D01*
X4546Y2090D01*
X4546Y2090D02*
X4546Y2090D01*
X4546Y2330D01*
X4546Y2330D02*
X4546Y2330D01*
X4384Y2330D01*
X4384Y2330D02*
X4384Y2330D01*
X4384Y2416D01*
X4384Y2416D02*
X4384Y2416D01*
X4384Y2610D01*
X4536Y2610D02*
X4536Y2610D01*
X4616Y2610D01*
X4616Y2610D02*
X4616Y2610D01*
X4616Y2665D01*
X4616Y2665D02*
X4616Y2665D01*
X4701Y2665D01*
X4701Y2565D02*
X4701Y2565D01*
X4756Y2565D01*
X4741Y2565D02*
X4741Y2565D01*
X4741Y2226D01*
X4741Y2226D02*
X4741Y2226D01*
X4697Y2182D01*
X3756Y2490D02*
X3756Y2490D01*
X3756Y2770D01*
X3656Y2759D02*
X3656Y2759D01*
X3656Y2850D01*
X3656Y2759D02*
X3656Y2759D01*
X3606Y2709D01*
X3266Y2245D02*
X3266Y2245D01*
X3266Y1897D01*
X3266Y1897D02*
X3266Y1897D01*
X3188Y1897D01*
X3188Y1897D02*
X3188Y1897D01*
X3035Y1897D01*
X3056Y1997D02*
X3056Y1997D01*
X3056Y2413D01*
X3056Y2413D02*
X3056Y2413D01*
X2933Y2413D01*
X2886Y2340D02*
X2886Y2340D01*
X2833Y2340D01*
X2833Y2340D02*
X2833Y2340D01*
X2833Y2113D01*
X2886Y2340D02*
X2886Y2340D01*
X2886Y2646D01*
X2885Y2645D02*
X2885Y2645D01*
X2846Y2684D01*
X2846Y2684D02*
X2846Y2684D01*
X2846Y2840D01*
X2946Y2840D02*
X2946Y2840D01*
X2946Y2640D01*
X2946Y2640D02*
X2946Y2640D01*
X2936Y2630D01*
X2936Y2630D02*
X2936Y2630D01*
X2936Y2520D01*
X2991Y2610D02*
X2991Y2610D01*
X2991Y2715D01*
X2833Y2610D02*
X2833Y2610D01*
X2833Y2413D01*
X2830Y2415D02*
X2830Y2415D01*
X2786Y2371D01*
X3056Y1997D02*
X3056Y1997D01*
X3188Y1997D01*
X3314Y1490D02*
X3314Y1490D01*
X3314Y3686D01*
X3477Y3796D02*
X3477Y3796D01*
X3477Y3900D01*
X3586Y3950D02*
X3586Y3950D01*
X3586Y3796D01*
X3695Y4000D02*
X3695Y4000D01*
X2245Y4000D01*
X2245Y4000D02*
X2245Y4000D01*
X2245Y3796D01*
X2246Y4000D02*
X2246Y4000D01*
X1301Y4000D01*
X456Y3645D02*
X456Y3645D01*
X456Y1475D01*
X456Y1475D02*
X456Y1475D01*
X516Y1415D01*
X516Y1415D02*
X516Y1415D01*
X796Y1415D01*
X796Y1415D02*
X796Y1415D01*
X821Y1390D01*
X821Y1390D02*
X821Y1390D01*
X821Y995D01*
X821Y995D02*
X821Y995D01*
X971Y845D01*
X971Y845D02*
X971Y845D01*
X2526Y845D01*
X3221Y1243D02*
X3221Y1243D01*
X3221Y1339D01*
X3126Y1435D02*
X3126Y1435D01*
X3081Y1480D01*
X2476Y1888D02*
X2476Y1888D01*
X2402Y1888D01*
X2402Y1988D02*
X2402Y1988D01*
X2316Y1988D01*
X2746Y3140D02*
X2746Y3140D01*
X2746Y3420D01*
X3750Y3305D02*
X3750Y3305D01*
X3896Y3305D01*
X1201Y1785D02*
X1201Y1785D01*
X1131Y1855D01*
X1046Y1745D02*
X1046Y1745D01*
X1046Y1435D01*
X1046Y1435D02*
X1046Y1435D01*
X1121Y1435D01*
X827Y1604D02*
X827Y1604D01*
X613Y1604D01*
X611Y1713D02*
X611Y1713D01*
X796Y1713D01*
X966Y1930D02*
X966Y1930D01*
X966Y1130D01*
X80Y145D02*
X80Y145D01*
X60Y125D01*
X60Y125D02*
X20Y125D01*
X0Y145D02*
X20Y125D01*
X0Y225D02*
X0Y145D01*
X20Y245D02*
X0Y225D01*
X60Y245D02*
X20Y245D01*
X80Y225D02*
X60Y245D01*
X120Y205D02*
X120Y205D01*
X120Y185D01*
X120Y165D02*
X120Y165D01*
X120Y145D01*
X160Y245D02*
X160Y245D01*
X160Y225D01*
X160Y225D02*
X240Y145D01*
X240Y145D02*
X240Y125D01*
X340Y125D02*
X340Y125D01*
X280Y125D01*
X360Y145D02*
X340Y125D01*
X360Y225D02*
X360Y145D01*
X340Y245D02*
X360Y225D01*
X340Y245D02*
X280Y245D01*
X300Y245D02*
X280Y245D01*
X300Y245D02*
X300Y125D01*
X400Y245D02*
X400Y245D01*
X400Y125D01*
X480Y245D02*
X400Y245D01*
X480Y245D02*
X400Y245D01*
X400Y245D02*
X400Y185D01*
X440Y185D02*
X400Y185D01*
X440Y185D02*
X400Y185D01*
X400Y185D02*
X400Y125D01*
X480Y125D02*
X400Y125D01*
X520Y145D02*
X520Y145D01*
X540Y125D01*
X580Y125D02*
X540Y125D01*
X600Y145D02*
X580Y125D01*
X520Y225D02*
X600Y145D01*
X540Y245D02*
X520Y225D01*
X580Y245D02*
X540Y245D01*
X580Y245D02*
X600Y225D01*
X660Y125D02*
X660Y125D01*
X640Y125D01*
X660Y245D02*
X660Y125D01*
X660Y245D02*
X640Y245D01*
X680Y245D02*
X640Y245D01*
X680Y245D02*
X660Y245D01*
X660Y245D02*
X660Y125D01*
X680Y125D02*
X660Y125D01*
X800Y185D02*
X800Y185D01*
X780Y185D01*
X800Y185D02*
X800Y125D01*
X800Y125D02*
X740Y125D01*
X720Y145D02*
X740Y125D01*
X720Y225D02*
X720Y145D01*
X740Y245D02*
X720Y225D01*
X800Y245D02*
X740Y245D01*
X840Y245D02*
X840Y245D01*
X840Y125D01*
X840Y245D02*
X920Y165D01*
X920Y245D02*
X920Y165D01*
X920Y245D02*
X920Y125D01*
X960Y245D02*
X960Y245D01*
X960Y225D01*
X960Y225D02*
X1040Y145D01*
X1040Y145D02*
X1040Y125D01*
X1080Y245D02*
X1080Y245D01*
X1080Y125D01*
X1080Y245D02*
X1080Y125D01*
X1080Y125D02*
X1160Y125D01*
X1200Y245D02*
X1200Y245D01*
X1260Y125D01*
X1320Y245D02*
X1260Y125D01*
X1360Y145D02*
X1360Y145D01*
X1360Y125D01*
X1440Y225D02*
X1360Y145D01*
X1440Y245D02*
X1440Y225D01*
X1360Y245D02*
X1360Y245D01*
X1360Y225D01*
X1360Y225D02*
X1440Y145D01*
X1440Y145D02*
X1440Y125D01*
X1500Y245D02*
X1500Y245D01*
X1480Y225D01*
X1500Y245D02*
X1540Y245D01*
X1540Y245D02*
X1560Y225D01*
X1560Y225D02*
X1560Y205D01*
X1560Y205D02*
X1540Y185D01*
X1500Y185D02*
X1540Y185D01*
X1500Y185D02*
X1480Y165D01*
X1480Y165D02*
X1480Y125D01*
X1480Y125D02*
X1560Y125D01*
X1600Y245D02*
X1600Y245D01*
X1600Y225D01*
X1600Y225D02*
X1680Y145D01*
X1680Y145D02*
X1680Y125D01*
X1800Y165D02*
X1800Y165D01*
X1760Y125D01*
X1740Y125D02*
X1760Y125D01*
X1720Y145D02*
X1740Y125D01*
X1720Y185D02*
X1720Y145D01*
X1740Y205D02*
X1720Y185D01*
X1740Y205D02*
X1760Y205D01*
X1760Y205D02*
X1800Y165D01*
X1800Y245D02*
X1800Y165D01*
X1800Y245D02*
X1800Y125D01*
X1840Y185D02*
X1840Y185D01*
X1840Y125D01*
X1840Y225D02*
X1840Y225D01*
X1840Y205D01*
X1880Y125D02*
X1880Y125D01*
X1940Y125D01*
X1960Y145D02*
X1940Y125D01*
X1940Y165D02*
X1960Y145D01*
X1900Y165D02*
X1940Y165D01*
X1880Y185D02*
X1900Y165D01*
X1900Y205D02*
X1880Y185D01*
X1900Y205D02*
X1960Y205D01*
X2000Y205D02*
X2000Y205D01*
X2080Y205D01*
X2040Y245D02*
X2040Y245D01*
X2040Y145D01*
X2040Y145D02*
X2060Y125D01*
X2060Y125D02*
X2080Y145D01*
X2120Y245D02*
X2120Y245D01*
X2120Y225D01*
X2120Y225D02*
X2200Y145D01*
X2200Y145D02*
X2200Y125D01*
X2280Y125D02*
X2280Y125D01*
X2320Y165D01*
X2260Y125D02*
X2280Y125D01*
X2240Y145D02*
X2260Y125D01*
X2240Y185D02*
X2240Y145D01*
X2240Y185D02*
X2260Y205D01*
X2260Y205D02*
X2280Y205D01*
X2280Y205D02*
X2320Y165D01*
X2320Y245D02*
X2320Y165D01*
X2320Y245D02*
X2320Y125D01*
X2360Y185D02*
X2360Y185D01*
X2360Y125D01*
X2360Y225D02*
X2360Y225D01*
X2360Y205D01*
X2400Y125D02*
X2400Y125D01*
X2460Y125D01*
X2460Y125D02*
X2480Y145D01*
X2460Y165D02*
X2480Y145D01*
X2420Y165D02*
X2460Y165D01*
X2400Y185D02*
X2420Y165D01*
X2400Y185D02*
X2420Y205D01*
X2420Y205D02*
X2480Y205D01*
X2520Y205D02*
X2520Y205D01*
X2600Y205D01*
X2560Y245D02*
X2560Y245D01*
X2560Y145D01*
X2560Y145D02*
X2580Y125D01*
X2580Y125D02*
X2600Y145D01*
X2640Y145D02*
X2640Y145D01*
X2640Y125D01*
X2680Y245D02*
X2680Y245D01*
X2680Y125D01*
X2680Y245D02*
X2740Y245D01*
X2740Y245D02*
X2760Y225D01*
X2760Y225D02*
X2760Y205D01*
X2740Y185D02*
X2760Y205D01*
X2680Y185D02*
X2740Y185D01*
X2680Y185D02*
X2680Y125D01*
X2860Y125D02*
X2860Y125D01*
X2880Y145D01*
X2820Y125D02*
X2860Y125D01*
X2800Y145D02*
X2820Y125D01*
X2800Y225D02*
X2800Y145D01*
X2800Y225D02*
X2820Y245D01*
X2820Y245D02*
X2860Y245D01*
X2860Y245D02*
X2880Y225D01*
X2920Y125D02*
X2920Y125D01*
X2980Y125D01*
X2980Y125D02*
X3000Y145D01*
X3000Y165D02*
X3000Y145D01*
X2980Y185D02*
X3000Y165D01*
X2940Y185D02*
X2980Y185D01*
X2940Y185D02*
X2980Y185D01*
X2980Y185D02*
X3000Y205D01*
X3000Y225D02*
X3000Y205D01*
X2980Y245D02*
X3000Y225D01*
X2920Y245D02*
X2980Y245D01*
X2920Y245D02*
X2940Y245D01*
X2940Y245D02*
X2940Y125D01*
X816Y2015D02*
X816Y2015D01*
X816Y2993D01*
X816Y2993D02*
X816Y2993D01*
X721Y2993D01*
X1132Y2910D02*
X1132Y2910D01*
X1206Y2910D01*
X9716Y1210D02*
X9716Y1210D01*
X9716Y950D01*
X10256Y890D02*
X10256Y890D01*
X10256Y2160D01*
X10256Y2160D02*
X10256Y2160D01*
X10416Y2160D01*
X10416Y2050D02*
X10416Y2050D01*
X10316Y2050D01*
X10421Y1943D02*
X10421Y1943D01*
X10606Y1943D01*
X10606Y1943D02*
X10606Y1943D01*
X10606Y2107D01*
X10606Y2107D02*
X10606Y2107D01*
X10531Y2107D01*
D16*
X10531Y2107D03*
X10531Y1998D03*
X10531Y1889D03*
X10531Y1780D03*
X10421Y1834D03*
X10421Y1943D03*
X10421Y2052D03*
X10421Y2161D03*
X9953Y2174D03*
X9953Y2274D03*
X9953Y2509D03*
X9953Y2609D03*
X9749Y2608D03*
X9713Y2407D03*
X9613Y2407D03*
X9513Y2407D03*
X9413Y2407D03*
X9349Y2608D03*
X9170Y2609D03*
X9170Y2509D03*
X9171Y2345D03*
X9171Y2245D03*
X9173Y2009D03*
X9173Y1909D03*
X8991Y1855D03*
X9016Y1660D03*
X9166Y1660D03*
X9166Y1560D03*
X8966Y1510D03*
X8866Y1510D03*
X8766Y1510D03*
X8666Y1510D03*
X8616Y1660D03*
X8591Y1855D03*
X8401Y1865D03*
X8401Y1965D03*
X8231Y1845D03*
X8186Y2109D03*
X8086Y2109D03*
X7986Y2109D03*
X7986Y2409D03*
X7886Y2409D03*
X8086Y2409D03*
X8186Y2409D03*
X8246Y2610D03*
X8401Y2645D03*
X8401Y2545D03*
X8598Y2624D03*
X8600Y2413D03*
X8700Y2413D03*
X8800Y2413D03*
X8900Y2413D03*
X8998Y2624D03*
X8991Y2845D03*
X8891Y2845D03*
X8791Y2845D03*
X8791Y3145D03*
X8691Y3145D03*
X8891Y3145D03*
X8991Y3145D03*
X9245Y3035D03*
X9245Y2935D03*
X9449Y3151D03*
X9549Y3151D03*
X9649Y3151D03*
X9749Y3151D03*
X9789Y3295D03*
X10071Y3325D03*
X10071Y3125D03*
X9749Y2851D03*
X9649Y2851D03*
X9549Y2851D03*
X9389Y3295D03*
X9281Y3676D03*
X9172Y3676D03*
X9063Y3676D03*
X8954Y3676D03*
X9008Y3786D03*
X9117Y3786D03*
X9226Y3786D03*
X9335Y3786D03*
X8216Y2850D03*
X8116Y2850D03*
X8016Y2850D03*
X7846Y2610D03*
X7661Y2595D03*
X7661Y2695D03*
X7476Y2615D03*
X7400Y2410D03*
X7300Y2410D03*
X7200Y2410D03*
X7100Y2410D03*
X6921Y2365D03*
X6921Y2265D03*
X6707Y2407D03*
X6607Y2407D03*
X6507Y2407D03*
X6407Y2407D03*
X6376Y2615D03*
X6191Y2615D03*
X6191Y2515D03*
X6036Y2610D03*
X5987Y2410D03*
X5887Y2410D03*
X5787Y2410D03*
X5687Y2410D03*
X5636Y2610D03*
X5471Y2610D03*
X5471Y2510D03*
X5301Y2610D03*
X5222Y2403D03*
X5122Y2403D03*
X5022Y2403D03*
X4922Y2403D03*
X4901Y2610D03*
X4701Y2565D03*
X4701Y2665D03*
X4536Y2610D03*
X4484Y2416D03*
X4384Y2416D03*
X4284Y2416D03*
X4184Y2416D03*
X4136Y2610D03*
X3991Y2615D03*
X3991Y2515D03*
X3821Y2615D03*
X3755Y2410D03*
X3655Y2410D03*
X3555Y2410D03*
X3455Y2410D03*
X3421Y2615D03*
X3191Y2615D03*
X3191Y2715D03*
X3191Y2935D03*
X3191Y3035D03*
X2946Y3140D03*
X2846Y3140D03*
X2746Y3140D03*
X2646Y3140D03*
X2431Y3075D03*
X2431Y2975D03*
X2196Y2850D03*
X2096Y2850D03*
X1996Y2850D03*
X1741Y2940D03*
X1741Y3040D03*
X1896Y3150D03*
X1996Y3150D03*
X2096Y3150D03*
X2196Y3150D03*
X2241Y3300D03*
X2191Y3686D03*
X2082Y3686D03*
X1973Y3686D03*
X1864Y3686D03*
X1918Y3796D03*
X2027Y3796D03*
X2136Y3796D03*
X2245Y3796D03*
X1841Y3300D03*
X1481Y3045D03*
X1381Y3045D03*
X1132Y3010D03*
X1132Y2910D03*
X1301Y2615D03*
X1301Y2515D03*
X1301Y2415D03*
X1135Y2455D03*
X1135Y2555D03*
X1601Y2515D03*
X1601Y2415D03*
X1601Y2315D03*
X1601Y2215D03*
X1601Y2115D03*
X1601Y2015D03*
X1813Y1915D03*
X1691Y1745D03*
X1861Y1687D03*
X1961Y1687D03*
X2051Y1537D03*
X2151Y1537D03*
X2251Y1537D03*
X2351Y1537D03*
X2541Y1415D03*
X2541Y1315D03*
X2351Y1237D03*
X2251Y1237D03*
X2151Y1237D03*
X1871Y1345D03*
X1871Y1445D03*
X1661Y1525D03*
X1561Y1525D03*
X1461Y1525D03*
X1361Y1525D03*
X1291Y1745D03*
X1132Y1860D03*
X1132Y1960D03*
X1135Y2115D03*
X1135Y2215D03*
X1301Y2215D03*
X1301Y2315D03*
X1301Y2115D03*
X1301Y2015D03*
X721Y1877D03*
X721Y1768D03*
X721Y1659D03*
X721Y1550D03*
X611Y1604D03*
X611Y1713D03*
X611Y1822D03*
X611Y1931D03*
X611Y2830D03*
X611Y2939D03*
X611Y3048D03*
X611Y3157D03*
X721Y3211D03*
X721Y3102D03*
X721Y2993D03*
X721Y2884D03*
X1601Y2715D03*
X1601Y2615D03*
X1826Y2610D03*
X1868Y2413D03*
X1968Y2413D03*
X2068Y2413D03*
X2168Y2413D03*
X2226Y2610D03*
X2411Y2605D03*
X2411Y2705D03*
X2591Y2610D03*
X2633Y2413D03*
X2733Y2413D03*
X2833Y2413D03*
X2933Y2413D03*
X2991Y2610D03*
X2946Y2840D03*
X2846Y2840D03*
X2746Y2840D03*
X2401Y2335D03*
X2401Y2235D03*
X2402Y1988D03*
X2402Y1888D03*
X2578Y1918D03*
X2733Y2113D03*
X2833Y2113D03*
X2933Y2113D03*
X2978Y1918D03*
X3188Y1897D03*
X3188Y1997D03*
X3403Y1918D03*
X3451Y1734D03*
X3413Y1543D03*
X3513Y1543D03*
X3613Y1543D03*
X3713Y1543D03*
X3851Y1734D03*
X3803Y1918D03*
X3986Y1882D03*
X3986Y1982D03*
X4129Y1918D03*
X4284Y2116D03*
X4384Y2116D03*
X4484Y2116D03*
X4529Y1918D03*
X4701Y1935D03*
X4701Y1835D03*
X4876Y1915D03*
X5022Y2103D03*
X5122Y2103D03*
X5222Y2103D03*
X5276Y1915D03*
X5471Y1882D03*
X5471Y1982D03*
X5626Y1915D03*
X5787Y2110D03*
X5887Y2110D03*
X5987Y2110D03*
X6026Y1915D03*
X6191Y1965D03*
X6343Y1918D03*
X6507Y2107D03*
X6607Y2107D03*
X6707Y2107D03*
X6743Y1918D03*
X6911Y1905D03*
X6911Y2005D03*
X7066Y1918D03*
X7116Y1710D03*
X7216Y1710D03*
X7221Y1513D03*
X7121Y1513D03*
X7321Y1513D03*
X7421Y1513D03*
X7619Y1469D03*
X7619Y1369D03*
X7421Y1213D03*
X7321Y1213D03*
X7221Y1213D03*
X7366Y1060D03*
X7567Y1075D03*
X7667Y1075D03*
X7947Y1207D03*
X8047Y1207D03*
X8147Y1207D03*
X8366Y1160D03*
X8366Y1060D03*
X8616Y1060D03*
X8766Y1210D03*
X8866Y1210D03*
X8966Y1210D03*
X9016Y1060D03*
X9166Y1210D03*
X9166Y1310D03*
X9416Y1510D03*
X9516Y1510D03*
X9616Y1510D03*
X9716Y1510D03*
X9916Y1760D03*
X9793Y1909D03*
X9713Y2107D03*
X9613Y2107D03*
X9513Y2107D03*
X9393Y1909D03*
X8900Y2113D03*
X8800Y2113D03*
X8700Y2113D03*
X8401Y2195D03*
X8401Y2295D03*
X7831Y1845D03*
X7649Y1897D03*
X7649Y1997D03*
X7466Y1918D03*
X7400Y2110D03*
X7300Y2110D03*
X7200Y2110D03*
X7652Y2218D03*
X7652Y2318D03*
X7486Y2845D03*
X7386Y2845D03*
X7286Y2845D03*
X7286Y3145D03*
X7386Y3145D03*
X7486Y3145D03*
X7681Y3025D03*
X7681Y2925D03*
X7916Y3150D03*
X8016Y3150D03*
X8116Y3150D03*
X8216Y3150D03*
X8271Y3310D03*
X8461Y3015D03*
X8461Y2915D03*
X7871Y3310D03*
X7891Y3686D03*
X7782Y3686D03*
X7673Y3686D03*
X7564Y3686D03*
X7618Y3796D03*
X7727Y3796D03*
X7836Y3796D03*
X7945Y3796D03*
X7186Y3145D03*
X6961Y3035D03*
X6961Y2935D03*
X6736Y2840D03*
X6636Y2840D03*
X6536Y2840D03*
X6536Y3140D03*
X6436Y3140D03*
X6351Y3305D03*
X6201Y3045D03*
X6201Y2945D03*
X6006Y2840D03*
X5906Y2840D03*
X5806Y2840D03*
X5806Y3140D03*
X5706Y3140D03*
X5906Y3140D03*
X6006Y3140D03*
X6164Y3686D03*
X6273Y3686D03*
X6382Y3686D03*
X6491Y3686D03*
X6545Y3796D03*
X6436Y3796D03*
X6327Y3796D03*
X6218Y3796D03*
X6751Y3305D03*
X6736Y3140D03*
X6636Y3140D03*
X6776Y2615D03*
X6931Y2565D03*
X6931Y2665D03*
X7076Y2615D03*
X8047Y1507D03*
X7947Y1507D03*
X7847Y1507D03*
X8147Y1507D03*
X8366Y1460D03*
X8366Y1560D03*
X6893Y1433D03*
X6893Y1333D03*
X6966Y1060D03*
X6881Y1695D03*
X6481Y1695D03*
X6191Y1865D03*
X6016Y1255D03*
X5907Y1255D03*
X5798Y1255D03*
X5689Y1255D03*
X5580Y1255D03*
X5471Y1255D03*
X5362Y1255D03*
X5253Y1255D03*
X5144Y1255D03*
X5035Y1255D03*
X4926Y1255D03*
X4817Y1255D03*
X4763Y1145D03*
X4872Y1145D03*
X4981Y1145D03*
X5090Y1145D03*
X5199Y1145D03*
X5308Y1145D03*
X5417Y1145D03*
X5526Y1145D03*
X5635Y1145D03*
X5744Y1145D03*
X5853Y1145D03*
X5962Y1145D03*
X4697Y2182D03*
X4697Y2282D03*
X4476Y2840D03*
X4376Y2840D03*
X4276Y2840D03*
X4276Y3140D03*
X4176Y3140D03*
X4376Y3140D03*
X4476Y3140D03*
X4711Y3035D03*
X4711Y2935D03*
X4936Y3145D03*
X5036Y3145D03*
X5136Y3145D03*
X5236Y3145D03*
X5321Y3310D03*
X5461Y3055D03*
X5461Y2955D03*
X5236Y2845D03*
X5136Y2845D03*
X5036Y2845D03*
X4921Y3310D03*
X4873Y3686D03*
X4764Y3686D03*
X4818Y3796D03*
X4927Y3796D03*
X5036Y3796D03*
X5145Y3796D03*
X5091Y3686D03*
X4982Y3686D03*
X3695Y3796D03*
X3586Y3796D03*
X3477Y3796D03*
X3368Y3796D03*
X3314Y3686D03*
X3423Y3686D03*
X3532Y3686D03*
X3641Y3686D03*
X3496Y3305D03*
X3456Y3150D03*
X3556Y3150D03*
X3656Y3150D03*
X3756Y3150D03*
X3896Y3305D03*
X3971Y3025D03*
X3971Y2925D03*
X3756Y2850D03*
X3656Y2850D03*
X3556Y2850D03*
X3191Y2345D03*
X3191Y2245D03*
X3555Y2110D03*
X3655Y2110D03*
X3755Y2110D03*
X3986Y2197D03*
X3986Y2297D03*
X4019Y1439D03*
X4019Y1339D03*
X4007Y1139D03*
X4007Y1039D03*
X3713Y1243D03*
X3613Y1243D03*
X3513Y1243D03*
X3629Y1063D03*
X3229Y1063D03*
X3035Y1237D03*
X2935Y1237D03*
X2835Y1237D03*
X2931Y1055D03*
X2531Y1055D03*
X2735Y1537D03*
X2835Y1537D03*
X2935Y1537D03*
X3035Y1537D03*
X3221Y1439D03*
X3221Y1339D03*
X2213Y1915D03*
X2168Y2113D03*
X2068Y2113D03*
X1968Y2113D03*
X1661Y1225D03*
X1561Y1225D03*
X1461Y1225D03*
X1315Y1063D03*
X1121Y1335D03*
X1121Y1435D03*
X1715Y1063D03*
X1881Y1105D03*
X1881Y1005D03*
X5471Y2175D03*
X5471Y2275D03*
X6191Y2315D03*
X6191Y2215D03*
X9516Y1210D03*
X9616Y1210D03*
X9716Y1210D03*
X9916Y1360D03*
D18*
X10476Y1450D03*
X10471Y2436D03*
X9665Y3731D03*
X8679Y3726D03*
X8275Y3741D03*
X7289Y3736D03*
X6875Y3741D03*
X5889Y3736D03*
X5475Y3741D03*
X4489Y3736D03*
X4025Y3741D03*
X3039Y3736D03*
X2575Y3741D03*
X1589Y3736D03*
X671Y3486D03*
X586Y4010D03*
X666Y2500D03*
X661Y2206D03*
X666Y1220D03*
X586Y760D03*
X4488Y1195D03*
X6346Y1200D03*
X10586Y4010D03*
X10586Y760D03*
D20*
X10316Y890D03*
X10176Y1450D03*
X10126Y1780D03*
X10076Y1887D03*
X9846Y1998D03*
X9076Y1600D03*
X8556Y1570D03*
X8606Y1280D03*
X8556Y1120D03*
X8446Y1210D03*
X8135Y1926D03*
X8246Y2030D03*
X8186Y2295D03*
X7776Y2050D03*
X7516Y1997D03*
X7466Y2318D03*
X7336Y2750D03*
X7486Y2925D03*
X7236Y3080D03*
X7286Y3360D03*
X7016Y2780D03*
X6876Y2840D03*
X6736Y2730D03*
X6556Y2460D03*
X6346Y2515D03*
X6246Y2460D03*
X6046Y2260D03*
X5987Y2315D03*
X5887Y2260D03*
X5687Y2215D03*
X5616Y2170D03*
X5386Y2050D03*
X5228Y2275D03*
X5286Y2320D03*
X5336Y2404D03*
X5171Y2226D03*
X4994Y2226D03*
X5128Y2610D03*
X4988Y2985D03*
X4823Y2985D03*
X4982Y3220D03*
X5036Y3310D03*
X5091Y3390D03*
X5046Y3540D03*
X4927Y3900D03*
X5036Y3950D03*
X5756Y3600D03*
X5856Y3445D03*
X5806Y3360D03*
X5956Y3540D03*
X6218Y3140D03*
X6096Y2890D03*
X6006Y2945D03*
X5576Y2900D03*
X6327Y3900D03*
X6436Y3950D03*
X6536Y3305D03*
X7101Y3520D03*
X7836Y3950D03*
X7945Y4000D03*
X8116Y3310D03*
X7776Y2845D03*
X7936Y2750D03*
X7016Y2210D03*
X6836Y2160D03*
X6786Y2365D03*
X6396Y2215D03*
X6407Y2005D03*
X6507Y1918D03*
X6556Y1870D03*
X6611Y1915D03*
X6396Y1865D03*
X6086Y2050D03*
X5962Y1570D03*
X5907Y1470D03*
X5798Y1370D03*
X5689Y1420D03*
X5635Y1620D03*
X5417Y1310D03*
X4981Y1490D03*
X4786Y1320D03*
X4926Y1780D03*
X4966Y1835D03*
X3836Y1600D03*
X3851Y1439D03*
X3786Y1139D03*
X3314Y1490D03*
X3086Y1480D03*
X2666Y2190D03*
X2525Y2334D03*
X2578Y2520D03*
X2833Y2610D03*
X2936Y2520D03*
X2991Y2715D03*
X2946Y2935D03*
X3395Y3030D03*
X3556Y3230D03*
X3423Y3540D03*
X3376Y3630D03*
X3477Y3900D03*
X3586Y3950D03*
X4276Y3490D03*
X4276Y3360D03*
X4384Y2610D03*
X4476Y2490D03*
X4129Y2490D03*
X3906Y2197D03*
X3755Y2297D03*
X3756Y2490D03*
X3655Y2615D03*
X3756Y2770D03*
X3403Y2490D03*
X3836Y1982D03*
X3035Y1339D03*
X3035Y1160D03*
X3086Y1110D03*
X2351Y950D03*
X2351Y1315D03*
X2476Y1537D03*
X2351Y1687D03*
X2116Y1687D03*
X1871Y1600D03*
X2116Y2060D03*
X2168Y2190D03*
X2168Y2335D03*
X2316Y2413D03*
X1741Y2615D03*
X1676Y2850D03*
X1546Y2790D03*
X1481Y2715D03*
X1726Y2115D03*
X1046Y1745D03*
X866Y1768D03*
X796Y1877D03*
X816Y2015D03*
X966Y1931D03*
X966Y1130D03*
X1381Y2940D03*
X1996Y3440D03*
X2136Y3950D03*
X2746Y3420D03*
X1326Y3900D03*
X456Y3640D03*
X6136Y1310D03*
X6071Y1420D03*
X6286Y1370D03*
X6426Y1470D03*
X6481Y1433D03*
X7271Y1290D03*
X7564Y1620D03*
X9416Y1000D03*
X8791Y3370D03*
X9649Y3295D03*
X9736Y3352D03*
X10176Y3180D03*
X9846Y3890D03*
X9986Y3948D03*
X9335Y3990D03*
X9226Y3940D03*
D22*
X9390Y3676D03*
X8000Y3686D03*
X9449Y2851D03*
X9413Y2107D03*
X8600Y2113D03*
X8691Y2845D03*
X7886Y2109D03*
X7916Y2850D03*
X7186Y2845D03*
X7100Y2110D03*
X7847Y1207D03*
X7121Y1213D03*
X6071Y1145D03*
X6407Y2107D03*
X5687Y2110D03*
X5706Y2840D03*
X6436Y2840D03*
X5200Y3686D03*
X4936Y2845D03*
X4922Y2103D03*
X4184Y2116D03*
X4176Y2840D03*
X3455Y2110D03*
X3456Y2850D03*
X2646Y2840D03*
X2633Y2113D03*
X3413Y1243D03*
X2735Y1237D03*
X2051Y1237D03*
X1868Y2113D03*
X1896Y2850D03*
X1301Y2715D03*
X721Y2775D03*
X611Y1495D03*
X1361Y1225D03*
X2300Y3686D03*
X3750Y3686D03*
X6600Y3686D03*
X9416Y1210D03*
X8666Y1210D03*
X10421Y1725D03*
D02*
M02*
