*%FSLAX23Y23*%
*%MOIN*%
G01*
%ADD11C,0.052*%
%ADD12C,0.240*%
%ADD13C,0.040*%
%ADD14C,0.062*%
%ADD15C,0.012*%
%ADD16C,0.014*%
%ADD17C,0.008*%
%ADD18C,0.070*%
%ADD19C,0.010*%
%ADD20R,0.062X0.062*%
%ADD21R,0.070X0.070*%
%ADD22O,0.060X0.040*%
D11*
X1570Y930D03*
D12*
X2131Y600D03*
X568Y600D03*
D14*
X350Y680D03*
X230Y680D03*
X230Y1080D03*
X350Y1080D03*
X940Y1090D03*
X1080Y1090D03*
X1450Y1090D03*
X1570Y1090D03*
X1730Y1090D03*
X1730Y690D03*
X1570Y690D03*
X1450Y690D03*
X1080Y690D03*
X1070Y580D03*
X930Y580D03*
X940Y690D03*
X930Y180D03*
X1070Y180D03*
X1890Y190D03*
X1890Y590D03*
D16*
X1890Y590D01*
X1890Y830D01*
X1890Y830D02*
X1890Y830D01*
X1860Y860D01*
X1860Y860D02*
X1860Y860D01*
X1860Y980D01*
X1860Y980D02*
X1860Y980D01*
X1930Y980D01*
X1930Y980D02*
X1930Y980D01*
X1924Y976D01*
X2190Y880D02*
X2190Y880D01*
X2282Y880D01*
X2282Y880D02*
X2282Y880D01*
X2282Y330D01*
X2282Y330D02*
X2282Y330D01*
X2200Y330D01*
X2200Y330D02*
X2200Y330D01*
X2170Y330D01*
X2170Y280D02*
X2170Y280D01*
X2140Y280D01*
X2140Y280D02*
X2140Y280D01*
X2116Y256D01*
X2116Y256D02*
X2116Y256D01*
X2116Y190D01*
X2116Y190D02*
X2116Y190D01*
X1890Y190D01*
X1890Y190D02*
X1890Y190D01*
X1890Y380D01*
X1890Y380D02*
X1890Y380D01*
X1440Y380D01*
X1440Y330D02*
X1440Y330D01*
X1520Y330D01*
X1520Y330D02*
X1520Y330D01*
X1570Y280D01*
X1570Y280D02*
X1570Y280D01*
X1570Y230D01*
X1570Y230D02*
X1570Y230D01*
X1520Y180D01*
X1520Y180D02*
X1520Y180D01*
X1070Y180D01*
X920Y180D02*
X920Y180D01*
X900Y160D01*
X900Y160D02*
X900Y160D01*
X880Y160D01*
X880Y160D02*
X880Y160D01*
X270Y160D01*
X270Y160D02*
X270Y160D01*
X250Y180D01*
X250Y176D02*
X250Y176D01*
X250Y250D01*
X250Y350D02*
X250Y350D01*
X150Y350D01*
X150Y350D02*
X150Y350D01*
X150Y490D01*
X150Y490D02*
X150Y490D01*
X230Y570D01*
X230Y570D02*
X230Y570D01*
X230Y680D01*
X350Y930D02*
X350Y930D01*
X350Y1080D01*
X350Y930D02*
X350Y930D01*
X640Y930D01*
X640Y930D02*
X640Y930D01*
X810Y930D01*
X810Y930D02*
X810Y930D01*
X880Y860D01*
X880Y860D02*
X880Y860D01*
X880Y630D01*
X880Y630D02*
X880Y630D01*
X930Y580D01*
X940Y690D02*
X940Y690D01*
X940Y900D01*
X940Y900D02*
X940Y900D01*
X860Y980D01*
X860Y980D02*
X860Y980D01*
X640Y980D01*
X1080Y1090D02*
X1080Y1090D01*
X1178Y1090D01*
X1178Y1090D02*
X1178Y1090D01*
X1178Y650D01*
X1180Y650D02*
X1180Y650D01*
X1270Y650D01*
X1070Y688D02*
X1070Y688D01*
X1070Y580D01*
X1570Y930D02*
X1570Y930D01*
X1570Y1090D01*
D18*
X2190Y880D03*
X250Y450D03*
X250Y350D03*
D20*
X550Y330D03*
X580Y330D03*
X610Y330D03*
X610Y230D03*
X580Y230D03*
X550Y230D03*
D21*
X250Y250D03*
X2190Y980D03*
D22*
X1930Y980D03*
X1930Y930D03*
X1930Y880D03*
X2170Y330D03*
X2170Y280D03*
X2170Y230D03*
X1440Y280D03*
X1440Y330D03*
X1440Y380D03*
X1270Y600D03*
X1270Y650D03*
X1270Y700D03*
X640Y880D03*
X640Y930D03*
X640Y980D03*
D02*
M02*
