*%FSLAX23Y23*%
*%MOIN*%
G01*
%ADD11C,0.052*%
%ADD12C,0.240*%
%ADD13C,0.040*%
%ADD14C,0.062*%
%ADD15C,0.012*%
%ADD16C,0.014*%
%ADD17C,0.008*%
%ADD18C,0.070*%
%ADD19C,0.010*%
%ADD20R,0.062X0.062*%
%ADD21R,0.070X0.070*%
%ADD22O,0.060X0.040*%
D11*
X1570Y930D03*
D12*
X2131Y600D03*
X568Y600D03*
D14*
X350Y680D03*
X230Y680D03*
X230Y1080D03*
X350Y1080D03*
X940Y1090D03*
X1080Y1090D03*
X1450Y1090D03*
X1570Y1090D03*
X1730Y1090D03*
X1730Y690D03*
X1570Y690D03*
X1450Y690D03*
X1080Y690D03*
X1070Y580D03*
X930Y580D03*
X940Y690D03*
X930Y180D03*
X1070Y180D03*
X1890Y190D03*
X1890Y590D03*
D15*
X2350Y100D02*
X2350Y100D01*
X2350Y1163D01*
X2350Y1163D02*
X2350Y1163D01*
X100Y1163D01*
X100Y1163D02*
X100Y1163D01*
X100Y100D01*
X100Y100D02*
X100Y100D01*
X2350Y100D01*
D16*
X2168Y236D02*
X2168Y236D01*
X2144Y236D01*
X2144Y236D02*
X2144Y236D01*
X2140Y240D01*
X2140Y240D02*
X2140Y240D01*
X2132Y248D01*
X2132Y248D02*
X2132Y248D01*
X2124Y256D01*
X2124Y256D02*
X2124Y256D01*
X2116Y264D01*
X2116Y264D02*
X2116Y264D01*
X2108Y272D01*
X2108Y272D02*
X2108Y272D01*
X2100Y280D01*
X2100Y280D02*
X2100Y280D01*
X1440Y280D01*
X1440Y280D02*
X1440Y280D01*
X930Y280D01*
X930Y280D02*
X930Y280D01*
X930Y180D01*
X760Y230D02*
X760Y230D01*
X580Y230D01*
X580Y230D02*
X580Y230D01*
X420Y230D01*
X420Y230D02*
X420Y230D01*
X370Y280D01*
X370Y280D02*
X370Y280D01*
X370Y410D01*
X370Y410D02*
X370Y410D01*
X330Y450D01*
X330Y450D02*
X330Y450D01*
X250Y450D01*
X350Y500D02*
X350Y500D01*
X430Y420D01*
X430Y420D02*
X430Y420D01*
X430Y370D01*
X430Y370D02*
X430Y370D01*
X470Y330D01*
X470Y330D02*
X470Y330D01*
X580Y330D01*
X760Y230D02*
X760Y230D01*
X760Y680D01*
X760Y680D02*
X760Y680D01*
X650Y790D01*
X650Y790D02*
X650Y790D01*
X600Y790D01*
X600Y790D02*
X600Y790D01*
X550Y840D01*
X550Y840D02*
X550Y840D01*
X550Y1040D01*
X550Y1040D02*
X550Y1040D01*
X600Y1090D01*
X600Y1090D02*
X600Y1090D01*
X940Y1090D01*
X940Y1090D02*
X940Y1090D01*
X1010Y1020D01*
X1010Y1020D02*
X1010Y1020D01*
X1380Y1020D01*
X1380Y1020D02*
X1380Y1020D01*
X1450Y1090D01*
X1450Y1090D02*
X1450Y1090D01*
X1520Y1020D01*
X1520Y1020D02*
X1520Y1020D01*
X1670Y1020D01*
X1670Y1020D02*
X1670Y1020D01*
X1730Y1080D01*
X1730Y1090D02*
X1730Y1090D01*
X1730Y980D01*
X1730Y980D02*
X1730Y980D01*
X1930Y980D01*
X1930Y980D02*
X1930Y980D01*
X2190Y980D01*
X2190Y880D02*
X2190Y880D01*
X1930Y880D01*
X1930Y880D02*
X1930Y880D01*
X1730Y880D01*
X1730Y880D02*
X1730Y880D01*
X1730Y690D01*
X1570Y690D02*
X1570Y690D01*
X1450Y690D01*
X1450Y690D02*
X1450Y690D01*
X1380Y690D01*
X1380Y690D02*
X1380Y690D01*
X1370Y700D01*
X1370Y700D02*
X1370Y700D01*
X1270Y700D01*
X1270Y600D02*
X1270Y600D01*
X1270Y280D01*
X1270Y600D02*
X1270Y600D01*
X1140Y600D01*
X1140Y600D02*
X1140Y600D01*
X1140Y820D01*
X1140Y820D02*
X1140Y820D01*
X1080Y880D01*
X1080Y880D02*
X1080Y880D01*
X670Y880D01*
X670Y880D02*
X670Y880D01*
X640Y880D01*
X350Y680D02*
X350Y680D01*
X350Y500D01*
X350Y1080D02*
X350Y1080D01*
X230Y1080D01*
X940Y690D02*
X940Y690D01*
X1080Y690D01*
X1570Y930D02*
X1570Y930D01*
X1930Y930D01*
D18*
X2190Y880D03*
X250Y450D03*
X250Y350D03*
D20*
X550Y330D03*
X580Y330D03*
X610Y330D03*
X610Y230D03*
X580Y230D03*
X550Y230D03*
D21*
X250Y250D03*
X2190Y980D03*
D22*
X1930Y980D03*
X1930Y930D03*
X1930Y880D03*
X2170Y330D03*
X2170Y280D03*
X2170Y230D03*
X1440Y280D03*
X1440Y330D03*
X1440Y380D03*
X1270Y600D03*
X1270Y650D03*
X1270Y700D03*
X640Y880D03*
X640Y930D03*
X640Y980D03*
D02*
M02*
